<?xml version="1.0" encoding="utf-8"?>
<!-- Generator: Adobe Illustrator 16.0.0, SVG Export Plug-In . SVG Version: 6.00 Build 0)  -->
<!DOCTYPE svg PUBLIC "-//W3C//DTD SVG 1.1//EN" "http://www.w3.org/Graphics/SVG/1.1/DTD/svg11.dtd">
<svg version="1.1" id="Layer_1" xmlns="http://www.w3.org/2000/svg" xmlns:xlink="http://www.w3.org/1999/xlink" x="0px" y="0px"
	 width="169px" height="169px" viewBox="0 0 169 169" enable-background="new 0 0 169 169" xml:space="preserve">
<path fill="#F2672A" d="M83.75,17.5c36.806,0,66.75,29.944,66.75,66.75c0,36.806-29.944,66.75-66.75,66.75S17,121.056,17,84.25
	C17,47.444,46.944,17.5,83.75,17.5 M83.75,3.5C39.153,3.5,3,39.653,3,84.25C3,128.847,39.153,165,83.75,165
	s80.75-36.153,80.75-80.75C164.5,39.653,128.347,3.5,83.75,3.5L83.75,3.5z"/>
<defs>
	<filter id="Adobe_OpacityMaskFilter" filterUnits="userSpaceOnUse" x="3" y="3.5" width="161.5" height="161.5">
		<feColorMatrix  type="matrix" values="1 0 0 0 0  0 1 0 0 0  0 0 1 0 0  0 0 0 1 0"/>
	</filter>
</defs>
<mask maskUnits="userSpaceOnUse" x="3" y="3.5" width="161.5" height="161.5" id="SVGID_1_">
	<g filter="url(#Adobe_OpacityMaskFilter)">
		<linearGradient id="SVGID_2_" gradientUnits="userSpaceOnUse" x1="126.5" y1="12.6665" x2="126.5" y2="135.0011">
			<stop  offset="0" style="stop-color:#FFFFFF"/>
			<stop  offset="1" style="stop-color:#000000"/>
		</linearGradient>
		<polygon fill="url(#SVGID_2_)" points="168.67,-0.67 168.67,175.33 84.33,175.33 84.33,173 84.33,84.33 84.33,-0.67 		"/>
	</g>
</mask>
<path mask="url(#SVGID_1_)" fill="#FFCE54" d="M83.75,3.5v14c36.81,0,66.75,29.94,66.75,66.75c0,36.81-29.94,66.75-66.75,66.75
	S17,121.06,17,84.25V84H3v0.25C3,128.85,39.15,165,83.75,165s80.75-36.15,80.75-80.75C164.5,39.65,128.35,3.5,83.75,3.5z">
	<animateTransform
            attributeName="transform"
            begin="0s"
            dur="2s"
            type="rotate"
            from="0 83.8 84.45"
            to="360 83.8 84.45"
            repeatCount="indefinite" 
    />
</path>
<g id="sun" opacity="0.5">
	<g>
		<defs>
			<path id="SVGID_3_" d="M55.174,92.805l7.789-0.694c-0.252-0.789-0.468-1.593-0.639-2.414L55.174,92.805z M108.758,92.107
				c2.632,0.261,8.865,0.637,8.865,0.637l-8.087-3.8C109.347,90.024,109.088,91.08,108.758,92.107 M109.907,84.756
				c0,0.572-0.026,1.139-0.066,1.701c2.264,0.084,5.831,0.318,8.199,0.969c3.708,1.016,6.756,0.359,8.669-0.838
				c-0.896-0.179-4.483-1.135-7.353-2.271c-2.174-0.86-6.682-1.411-9.543-1.629C109.872,83.369,109.907,84.059,109.907,84.756
				 M46.725,81.647c0,0,0.638,1.752,6.376,3.108c3.885,0.917,7.106,1.504,8.786,1.789c-0.044-0.592-0.074-1.188-0.074-1.789
				c0-0.662,0.035-1.314,0.086-1.962c-3.557-0.083-8.618-1.501-11.03-1.785c-0.27-0.032-0.547-0.046-0.826-0.046
				C47.522,80.963,46.725,81.647,46.725,81.647 M62.226,80.331c0.18-0.966,0.414-1.913,0.705-2.833
				c-1.814-0.242-5.447-0.679-8.812-0.792C55.595,76.943,60.063,79.203,62.226,80.331 M108.484,76.598
				c0.343,0.951,0.624,1.93,0.848,2.931c2.324-1.005,7.124-3.147,8.291-4.179C116.555,75.35,111.358,76.145,108.484,76.598
				 M104.917,70.098c0.911,1.181,1.712,2.448,2.392,3.788c1.949-0.3,4.818-0.93,7.743-2.242c5.201-2.332,7.294-4.006,7.054-6.397
				C117.594,68.957,108.375,69.85,104.917,70.098 M67.61,69.105c0.663-0.773,1.372-1.506,2.127-2.19
				c-1.827-1.234-5.48-3.739-6.932-5.016C63.911,63.919,66.175,67.366,67.61,69.105 M56.585,68.07
				c3.172,3.115,6.076,5.617,7.391,6.722c0.566-1.24,1.229-2.427,1.988-3.544c-3.001-2.421-5.854-5.361-7.96-6.752
				c-2.275-1.504-7.214-2.895-7.214-2.895S52.38,63.937,56.585,68.07 M101.366,66.381c0.71,0.6,1.385,1.24,2.021,1.918
				c2.472-2.893,4.313-5.964,4.313-6.699C106.993,61.752,103.328,64.486,101.366,66.381 M77.957,62.043
				c0.896-0.312,1.814-0.572,2.754-0.776c-0.725-1.703-2.743-6.373-3.856-8.215C77.036,55.098,77.667,59.873,77.957,62.043
				 M90.408,61.144c0.937,0.18,1.854,0.41,2.748,0.696c0.204-2.34,0.288-7.098,0.196-8.787
				C92.669,54.801,91.196,58.926,90.408,61.144 M107.998,49.704c-0.538,1.375-2.21,3.946-4.962,6.337
				c-2.413,2.099-5.376,4.841-7.158,6.854c1.175,0.539,2.299,1.165,3.363,1.879c0.859-1.02,2.386-2.697,4.99-5.207
				c4.399-4.234,4.358-10.047,3.91-10.049C108.099,49.519,108.047,49.578,107.998,49.704 M71.682,65.337
				c1.134-0.829,2.342-1.563,3.615-2.186c-1.801-7.545-5.788-13.96-8.606-15.54C68.556,50.385,71.039,61.516,71.682,65.337
				 M85.581,50.84c-0.861,2.996-1.518,7.813-1.783,9.962c0.68-0.058,1.368-0.093,2.061-0.093c0.536,0,1.066,0.022,1.594,0.057
				c0.251-3.083,0.857-6.172,1.656-9.688c0.896-3.944,0.837-8.727,0.837-8.727S86.717,46.895,85.581,50.84"/>
		</defs>
		<use xlink:href="#SVGID_3_"  overflow="visible" fill="#F2672B"/>
		<clipPath id="SVGID_4_">
			<use xlink:href="#SVGID_3_"  overflow="visible"/>
		</clipPath>
		<polygon clip-path="url(#SVGID_4_)" fill="#F2672B" points="46.725,92.326 46.725,42.352 128.622,42.352 126.709,92.805 		"/>
	</g>
	<g>
		<path fill="#F2672B" d="M103.93,83.83c-0.13-2.4-0.71-4.67-1.68-6.73c-2.88-6.17-9.14-10.44-16.39-10.44S72.35,70.93,69.47,77.1
			c-0.97,2.06-1.55,4.33-1.68,6.73c-0.01,0.26-0.021,0.52-0.021,0.779c0,0.261,0.011,0.521,0.021,0.771
			c0.13,2.399,0.71,4.67,1.69,6.729c2.869,6.171,9.13,10.431,16.38,10.431s13.51-4.26,16.38-10.431
			c0.979-2.06,1.56-4.33,1.689-6.729c0.011-0.25,0.021-0.51,0.021-0.771V84.45C103.95,84.24,103.95,84.04,103.93,83.83z
			 M76.06,84.609c0.08-5.35,4.44-9.659,9.801-9.659c5.359,0,9.72,4.31,9.8,9.659c-0.09,5.351-4.44,9.65-9.8,9.65
			C80.5,94.26,76.15,89.96,76.06,84.609z"/>
		<path fill="#F2672B" d="M69.48,92.109h-0.15c-0.92-2.069-1.47-4.34-1.54-6.729C67.92,87.779,68.5,90.05,69.48,92.109z"/>
		<path fill="#F2672B" d="M103.93,85.38c-0.069,2.39-0.62,4.66-1.54,6.729h-0.149C103.22,90.05,103.8,87.779,103.93,85.38z"/>
	</g>
	<g>
		<defs>
			<path id="SVGID_5_" d="M104.917,99.11c3.458,0.248,12.677,1.142,17.188,4.851c0.24-2.392-1.853-4.065-7.054-6.395
				c-2.925-1.313-5.794-1.943-7.743-2.243C106.629,96.663,105.828,97.93,104.917,99.11 M67.61,100.104
				c-1.436,1.739-3.699,5.186-4.805,7.205c1.451-1.276,5.104-3.782,6.932-5.016C68.982,101.608,68.273,100.875,67.61,100.104
				 M56.585,101.139c-4.205,4.133-5.795,6.468-5.795,6.468s4.938-1.389,7.214-2.895c2.106-1.391,4.959-4.33,7.96-6.751
				c-0.759-1.118-1.422-2.303-1.988-3.543C62.661,95.521,59.757,98.022,56.585,101.139 M101.366,102.827
				c1.962,1.896,5.627,4.629,6.333,4.779c0-0.733-1.841-3.804-4.313-6.696C102.751,101.587,102.076,102.228,101.366,102.827
				 M77.957,107.166c-0.29,2.169-0.921,6.944-1.103,8.989c1.113-1.842,3.132-6.513,3.856-8.214
				C79.771,107.736,78.854,107.476,77.957,107.166 M90.408,108.065c0.788,2.218,2.261,6.341,2.944,8.09
				c0.092-1.688,0.008-6.447-0.196-8.786C92.263,107.655,91.345,107.886,90.408,108.065 M107.998,119.503
				c0.049,0.128,0.101,0.186,0.144,0.186c0.448,0,0.489-5.813-3.91-10.05c-2.604-2.508-4.131-4.186-4.99-5.205
				c-1.064,0.714-2.188,1.341-3.363,1.879c1.782,2.013,4.745,4.756,7.158,6.854C105.788,115.558,107.46,118.129,107.998,119.503
				 M71.682,103.872c-0.643,3.82-3.126,14.952-4.991,17.725c2.818-1.579,6.806-7.995,8.606-15.54
				C74.023,105.434,72.815,104.7,71.682,103.872 M85.581,118.367c1.136,3.947,4.364,8.489,4.364,8.489s0.06-4.783-0.837-8.728
				c-0.799-3.516-1.405-6.604-1.656-9.687c-0.527,0.035-1.058,0.059-1.594,0.059c-0.692,0-1.381-0.037-2.061-0.095
				C84.063,110.554,84.72,115.374,85.581,118.367"/>
		</defs>
		<use xlink:href="#SVGID_5_"  overflow="visible" fill="#F2672B"/>
		<clipPath id="SVGID_6_">
			<use xlink:href="#SVGID_5_"  overflow="visible"/>
		</clipPath>
		<polygon clip-path="url(#SVGID_6_)" fill="#F2672B" points="46.725,76.882 46.725,126.856 128.622,126.856 126.709,76.403 		"/>
	</g>
	<g>
		<path fill="#F2672B" d="M69.47,77.1c-0.97,2.06-1.55,4.33-1.68,6.73c0.07-2.39,0.62-4.66,1.54-6.73H69.47z"/>
		<path fill="#F2672B" d="M103.93,83.83c-0.13-2.4-0.71-4.67-1.68-6.73h0.14C103.31,79.17,103.86,81.44,103.93,83.83z"/>
	</g>
</g>
</svg>
