<?xml version="1.0" encoding="UTF-8" standalone="no"?>
<svg id="svg3671" 
  xmlns:rdf="http://www.w3.org/1999/02/22-rdf-syntax-ns#" xmlns="http://www.w3.org/2000/svg" height="72px" width="1008px" version="1.1" 
  xmlns:cc="http://creativecommons.org/ns#" xmlns:dc="http://purl.org/dc/elements/1.1/">
<g stroke="#f00" fill="#f00">
 <g i="layer1" stroke="{{selectedColor}}" fill="{{selectedColor}}">
  <g i="g4860">
   <path id="path3690" style="stroke: none;baseline-shift:baseline;block-progression:tb;direction:ltr;text-indent:0;text-align:start;enable-background:accumulate;text-transform:none;" d="m26.438,20.188c-0.27089,0.05639-0.51505,0.23079-0.65625,0.46875l-6.313,9.781-10.406-0.063c-0.1737-0.003-0.348,0.041-0.5,0.125-1.7732,1.007-3.1886,2.532-3.875,4.688-0.0373,0.099-0.0585,0.205-0.0625,0.312l0.125,10.062c0.0000524,0.52358,0.47642,0.99995,1,1l3.0312,0.03125c0.35004,3.8744,3.5049,6.5938,7.3438,6.5938,3.8185,0,6.9661-2.6863,7.3438-6.5312l21.094,0.125c0.43469,3.7826,3.787,6.3125,7.5625,6.3125,3.7549,0,6.6011-2.4974,7.0625-6.25l6.8101-0.01294c0.01535-0.000052,0.0056-1.906,0.0056-1.906l-1.977-0.031,0.035-10.394c-0.002-0.163-0.045-0.326-0.124-0.469-0.675-1.222-1.673-2.788-4.063-3.593-0.1-0.038-0.206-0.059-0.313-0.063h-4.0938l-5.218-9.656c-0.168-0.317-0.517-0.528-0.875-0.531h-22.75c-0.03123-0.0015-0.06252-0.0015-0.09375,0-0.03123-0.0015-0.06252-0.0015-0.09375,0zm0.71875,2,21.625,0l5.218,9.656c0.16791,0.31641,0.51681,0.52824,0.875,0.53125h4.4688c1.6491,0.58734,2.1389,1.3554,2.7188,2.4062l-0.071,10.072-2.804-0.009c-0.488-3.723-3.579-6.594-7.313-6.594-3.7119,0-6.7657,2.8412-7.2812,6.5312l-21.188-0.125c-0.566-3.63-3.61-6.406-7.281-6.406-3.6379,0-6.6456,2.7301-7.25,6.3125h-2.125l-0.125-8.875c0.519-1.516,1.4768-2.531,2.7812-3.312l10.594,0.063c0.33575-0.0012,0.66537-0.18431,0.84375-0.46875zm-11.219,18.25c3.8954-0.03477,5.29,3.1193,5.375,5.375,0.06438,2.7601-2.3507,5.1562-5.1875,5.1562-2.8593,0-5.25-2.0367-5.3125-5.1562,0.04894-2.4898,1.8518-5.3133,5.125-5.375zm30.906,5.875c-0.27624-2.7975,1.1801-5.6046,5.1564-5.9076,3.9874,0.25852,5.2168,2.8684,5.1561,5.5326,0.17218,3.108-2.3209,5.0938-5.0938,5.0938-2.7953,0-5.262-1.7667-5.2188-4.7188z"/>
   <path id="path4474" stroke-linejoin="round" d="m26.25,31.437,3.375-6.0625,3.25-0.0625,0,0" stroke-linecap="round" stroke-miterlimit="4" stroke-dasharray="none" stroke-width="2" fill="none"/>
  </g>
  <g id="g4857">
   <path id="path4497" style="stroke: none;baseline-shift:baseline;block-progression:tb;direction:ltr;text-indent:0;text-align:start;enable-background:accumulate;text-transform:none;" d="M179.47,6.9375c-4.48,0.1685-7.55,1.9804-9.66,4.3125-1.92,2.122-3.04,4.606-4.03,6.75-4.6-1.007-8.08-0.216-10.44,1.781-2.22,1.883-3.44,4.64-4.03,7.469h-1.56a1.0001,1.0001,0,0,0,-1,1.156l4.63,27a1.0001,1.0001,0,0,0,0.09,0.282c1.54,3.29,3.78,3.762,5.22,4.468a1.0001,1.0001,0,0,0,0.31,0.094c0.71,3.544,3.77,6.219,7.47,6.219,3.74,0,6.86-2.738,7.53-6.344l11.31-0.094c0.63,3.65,3.73,6.438,7.5,6.438,3.82,0,7-2.868,7.57-6.594h1.62a1.0001,1.0001,0,0,0,0.47,-0.125c1.69-0.873,3.03-2.492,3.75-4.969a1.0001,1.0001,0,0,0,0.03,-0.156l3.75-26.5a1.0001,1.0001,0,0,0,-1,-1.125h-1.28c-1.22-4.587-3.33-7.208-5.97-8.438-2.52-1.174-5.35-1.075-8.16-0.718-1.03-3.249-2.39-5.919-4.53-7.75-2.32-1.9912-5.43-3.0149-9.5-3.1565h-0.06-0.03zm0,2c0.03,0.0012,0.06-0.0014,0.09,0,3.71,0.1445,6.29,1.0592,8.19,2.6875,1.92,1.644,3.25,4.113,4.25,7.563l0.22,0.843,0.87-0.125c2.96-0.42,5.67-0.528,7.82,0.469,1.92,0.896,3.54,2.768,4.65,6.469l-21.97,0.25-30.09,0.125c0.56-2.35,1.49-4.516,3.12-5.907,1.98-1.671,4.87-2.453,9.47-1.25l0.82,0.188,0.34-0.75c1.08-2.305,2.24-4.892,4.06-6.906,1.81-1.997,4.23-3.4852,8.16-3.6565zm28.37,20.062l-3.56,25.219v0.031c-0.57,1.967-1.48,2.997-2.59,3.625h-1.25c-0.39-3.922-3.67-6.969-7.63-6.969-4.01,0-7.27,3.131-7.59,7.125l-11.13,0.094c-0.28-4.038-3.58-7.219-7.62-7.219-4.01,0-7.27,3.131-7.59,7.125-1.4-0.585-2.45-0.873-3.54-3.125l-4.37-25.437h1.15l31.94-0.375,23.78-0.094zm-56.9,0.25h0.03v0.094l-0.03-0.094zm15.53,23.875c3.05,0,5.53,2.494,5.53,5.594s-2.48,5.625-5.53,5.625-5.5-2.525-5.5-5.625,2.45-5.594,5.5-5.594zm26.34,0c3.05,0,5.53,2.494,5.53,5.594s-2.48,5.625-5.53,5.625-5.53-2.525-5.53-5.625,2.48-5.594,5.53-5.594z"/>
  </g>
  <g id="g4537" stroke-linejoin="miter" stroke-linecap="butt" stroke-miterlimit="4" stroke-dasharray="none" stroke-width="2" fill="none">
   <path id="path4525" d="m243.07,7.241,0,10.519c-8.1742,3.4766-8.6796,6.9532-9.0157,10.43l-0.09,25.986c0.69446,2.5549,1.5747,4.3668,2.74,5.038-1.6062,1.0912-2.9006,3.2995-2.6516,6.717h34.913c0.009-1.8167,0.35493-4.8994-2.8284-6.717,1.5347-0.62846,2.6653-1.9568,3.0936-5.038l-0.17-26.252c0.19681-2.8513-2.767-8.2589-9.1041-10.341v-10.342z"/>
   <path id="path4527" d="m236.44,59.214,30.14,0"/>
   <path id="path4529" d="m233.96,27.924,35.002,0"/>
   <path id="path4531" d="m247.4,12.014,0.7071,6.099,7.2939,0,0.66104-6.099z"/>
   <path id="path4533" d="m251.43,37.024c-2.5273,3.8635-4.4725,6.5495-4.4536,8.7571,0.0327,2.1292,2.3477,4.3025,4.9201,4.0312,2.9515-0.22744,4.1186-2.1974,3.908-4.3915-0.2336-2.4343-2.3758-5.5732-4.3746-8.3969z"/>
  </g>
  <g id="g4552" stroke-linejoin="miter" stroke-linecap="butt" stroke-miterlimit="4" stroke-dasharray="none" stroke-width="2" fill="none">
   <path id="path4544" d="m307,9,33,0c2.6065-0.038433,2.938,3.0993,0,2.875v12.75c2.6188-0.1136,2.8275,3.7788,0,3.625v16.562c2.5154-0.15241,2.7981,3.6574,0,3.438v12.25c2.6695-0.05637,2.728,3.5971,0,3.5h-33c-2.6172,0.08627-2.9609-3.5632,0-3.5v-12.25c-2.7261,0.18991-2.859-3.7492,0-3.438l0.0625-16.687c-2.52,0.29395-3.0423-3.5369-0.0625-3.375v-12.875c-2.79,0.105-2.92-3.1623,0-2.875z"/>
   <path id="path4546" d="m306.85,9.083,0,2.917,33.25,0,0-2.917"/>
   <path id="path4548" d="m306.9,63.646,0-2.5835,33.2,0,0,2.2835"/>
   <path id="path4550" d="m320.69,24.125c1.7582,3.5683,2.4214,7.5103,0.5,9.1875-0.95442-0.89938-0.77387-1.5351-2.5625-1.3125-2.9442,0.50142-3.5582,3.8192-3.75,6.5625,0.52972,6.0237,4.4503,7.4581,8.1875,7.6875,4.343,0.07867,7.6045-2.8486,7.5625-7.125,0.5662-7.3767-2.3292-12.434-9.9375-15z"/>
  </g>
  <g id="g4578" stroke-linejoin="miter" stroke-linecap="butt" stroke-miterlimit="4" stroke-dasharray="none" stroke-width="2" fill="none">
   <path id="path4558" d="m371.12,13c5.768-7.2637,8.6412-6.6703,16.875-5.125,8.0952,2.348,12.461,2.884,17.375,0.375-2.5396,4.5914-7.9408,8.9516-16.875,7.25-4.1973-1.633-8.2931-4.0217-17.375-2.5z"/>
   <path id="path4560" d="m370.25,19.375-4,24.625,0,21.875,59,0.125-0.25-30.375-14.875,10.75-0.25-10.75-15.625,11.375,0.25-11.25-14.625,10.5-5.5-26.75z"/>
   <path id="path4564" d="m384,54,5.4359-0.000004"/>
   <path id="path4572" d="m399,60,5.4359-0.000004"/>
   <path id="path4574" d="m414,54,5.4359-0.000004"/>
   <path id="path4576" d="m414,60,5.4359-0.000004"/>
   <path id="path4568" d="m384,60,5.4359-0.000004"/>
   <path id="path4570" d="m399,54,5.4359-0.000004"/>
  </g>
  <g id="g4596" stroke-linejoin="miter" stroke-linecap="butt" stroke-miterlimit="4" stroke-dasharray="none" stroke-width="2" fill="none">
   <path id="path4588" d="m443.38,33.5c-5.9394-0.53094-6.9505-13.64,4.375-12.5,1.9047-3.266,4.4755-5.6438,8.375-6.25,5.9434-10.74,17.25-10.244,22.75,0.25,4.3374,0.92974,6.1483,3.4385,7.875,6,10.575-1.7358,11.244,10.04,5.75,12.375z"/>
   <path id="path4592" d="m467.38,33.25,0.25,16.45-12.25,0,6,16.05,12.375,0,6.125-16.05-12.25,0"/>
   <path id="path4594" d="m457.81,33.5,9.6875,9.5,9.8125-9.375,0,0"/>
  </g>
  <g id="g4621" stroke-linejoin="miter" stroke-linecap="butt" stroke-miterlimit="4" stroke-dasharray="none" stroke-width="2" fill="none">
   <path id="path4603" d="m511.12,35.25,28.375-22.125,28.875,21.75z"/>
   <path id="path4605" d="m509.38,60,59.75,0"/>
   <path id="path4609" d="m516.01,35.349,0,24.572"/>
   <path id="path4611" d="m563.03,34.995,0.17677,24.837"/>
   <path id="path4613" d="m540.49,41.536,0.0884,8.2201,15.822,0-0.0884-8.2201z"/>
   <path id="path4615" d="M522.2,59.921,522.29,56h12.374l-0.0884,3.9209"/>
   <path id="path4617" d="m524.32,55.855,0.0884-14.407,8.1317,0,0,14.407"/>
   <path id="path4619" d="m552.69,23.063,0-5.6569,7.8666-0.08839,0.0884,11.756"/>
  </g>
  <g id="g4688">
   <path id="path4631" style="stroke: none;baseline-shift:baseline;block-progression:tb;direction:ltr;text-indent:0;text-align:start;enable-background:accumulate;text-transform:none;" d="M594.5,19l-0.28,0.562c-3.64,7.714-7.61,12.334-11.72,14.688l-0.5,0.312c0,5.698,0.12,16.324,0.12,16.438h6.13c0.76,2.325,2.94,4,5.5,4s4.74-1.675,5.5-4h1.28c0.76,2.325,2.94,4,5.5,4s4.74-1.675,5.5-4h16.85c0.76,2.325,2.93,4,5.5,4,2.56,0,4.73-1.675,5.5-4h1.37c0.76,2.325,2.94,4,5.5,4s4.74-1.675,5.5-4h1.28c0.76,2.325,2.94,4,5.5,4s4.74-1.675,5.5-4h5.97v-8h-62.25c0.09,0.043,0-24,0-24h-13.25zm1.22,2h10.03v22h-21.69l-0.06-7.375c4.28-2.635,8.19-7.335,11.72-14.625zm-2,23.875c2.4,0,4.34,1.931,4.34,4.313,0,2.381-1.94,4.312-4.34,4.312s-4.34-1.931-4.34-4.312c0-2.382,1.94-4.313,4.34-4.313zm12.31,0c2.4,0,4.35,1.931,4.35,4.313,0,2.381-1.95,4.312-4.35,4.312s-4.34-1.931-4.34-4.312c0-2.382,1.94-4.313,4.34-4.313zm27.94,0c2.4,0,4.34,1.931,4.34,4.313,0,2.381-1.94,4.312-4.34,4.312s-4.35-1.931-4.35-4.312c0-2.382,1.95-4.313,4.35-4.313zm12.44,0c2.4,0,4.34,1.931,4.34,4.313,0,2.381-1.94,4.312-4.34,4.312s-4.35-1.931-4.35-4.312c0-2.382,1.95-4.313,4.35-4.313zm12.12,0c2.4,0,4.35,1.931,4.35,4.313,0,2.381-1.95,4.312-4.35,4.312s-4.34-1.931-4.34-4.312c0-2.382,1.94-4.313,4.34-4.313zm-74.44,0.125s4.9-0.001,5.6,0c-1.03,1.024-1.68,2.436-1.72,4h-3.85l-0.03-4zm13.72,0c0.95,0.001,3.07-0.001,4.16,0-1.03,1.024-1.68,2.436-1.72,4h-0.72c-0.04-1.564-0.69-2.976-1.72-4zm12.28,0c5.99,0.006,12.87,0.025,19.69,0.031-1.01,1.021-1.65,2.421-1.69,3.969h-16.28c-0.04-1.564-0.68-2.976-1.72-4zm57.91,0v4h-3.69c-0.04-1.548-0.67-2.948-1.69-3.969,2.18-0.006,5.38-0.019,5.38-0.031zm-30.03,0.031c1.59,0.001,2.65-0.001,4.19,0-1.02,1.021-1.65,2.421-1.69,3.969h-0.81c-0.04-1.548-0.68-2.948-1.69-3.969zm12.37,0c1.35,0,2.87,0.001,4.1,0-1.02,1.021-1.65,2.421-1.69,3.969h-0.72c-0.04-1.548-0.67-2.948-1.69-3.969z"/>
   <path id="path4633" stroke-linejoin="miter" d="m619.12,21.85,6.625-0.000001,0-2.1,6.125-0.000001,0,2.1,15.25,0,0-2.1005,5.875,0.0005,0,2.1,9,0c10.023,2.4626,8.9813,18.626,0,20.9l-42.875,0.125c-9.7149-2.2868-9.9402-19.123,0-21.025z" stroke-linecap="butt" stroke-miterlimit="4" stroke-dasharray="none" stroke-width="2" fill="none"/>
   <path id="path4635" stroke-linejoin="round" d="m593.7,31.813c0.26517-0.35355,4.4194-7.8666,4.4194-7.8666l2.4749,0.000002" stroke-linecap="butt" stroke-miterlimit="4" stroke-dasharray="none" stroke-width="2" fill="none"/>
   <path id="path4682" stroke-linejoin="miter" d="m629.69,29.132c-1.5527,2.2201-2.4643,4.2516-2.5625,5.5625,0.0685,1.6592,1.5184,1.924,2.5938,2,1.0456,0.06388,2.4801-0.43632,2.375-2-0.0189-1.5003-1.2729-3.4549-2.4062-5.5625z" stroke-linecap="butt" stroke-miterlimit="4" stroke-dasharray="none" stroke-width="2" fill="none"/>
   <path id="path4686" stroke-linejoin="miter" d="m650.56,29.132c-1.5527,2.2201-2.4643,4.2516-2.5625,5.5625,0.0685,1.6592,1.5184,1.924,2.5938,2,1.0456,0.06388,2.4801-0.43632,2.375-2-0.0189-1.5003-1.2729-3.4549-2.4062-5.5625z" stroke-linecap="butt" stroke-miterlimit="4" stroke-dasharray="none" stroke-width="2" fill="none"/>
  </g>
  <g id="g4709" stroke-linejoin="miter" stroke-linecap="butt" stroke-miterlimit="4" stroke-dasharray="none" stroke-width="2" fill="none">
   <path id="path4695" d="m729,9,0,55,32.8,0,0-55z"/>
   <path id="path4697" d="m735.5,15.5,0,10,20,0,0-10z"/>
   <path id="path4699" d="m728.94,31.548,32.527,0"/>
   <path id="path4701" d="m749.5,39.5,0,10,6,0,0-10z"/>
   <path id="path4703" d="m749.18,55.943,6.5407,0"/>
   <path id="path4705" d="m762,19.125c3.3516,0.001,7.3652-0.73127,7.875,4.625l-0.125,36.5c0.98758,5.1587,8.6754,5.3681,10,0.375v-21.875c2.1309-3.7858,5.3976-6.4357,8.125-9.625"/>
   <path id="path4707" d="m779.38,41.625,6.375,0.125-0.125,6.75-5.875,1.875"/>
  </g>
  <g id="g4740" stroke-linejoin="miter" stroke-linecap="butt" stroke-miterlimit="4" stroke-dasharray="none" stroke-width="2" fill="none">
   <g id="g4724">
    <path id="path4720" d="M807.38,23.625c6.55-22.494,14.8-19.514,22.62-1.375l-1.5625,1.375,12.938-0.125,5.375-11.188-3.9375,1.125c-2.06-7.9523-16.12-4.0835-24.7-5.812"/>
    <path id="path4722" d="m806.88,22.5,12.875,6.25c2.1844-4.2777,4.401-10.736,7.375-13.062"/>
   </g>
   <g id="g4728" transform="matrix(-0.44463518,-0.89571176,0.89571176,-0.44463518,1164.8743,795.31094)">
    <path id="path4730" d="M807.38,23.625c6.55-22.494,14.8-19.514,22.62-1.375l-1.5625,1.375,12.938-0.125,5.375-11.188-3.9375,1.125c-2.06-7.9523-16.12-4.0835-24.7-5.812"/>
    <path id="path4732" d="m806.88,22.5,12.875,6.25c2.1844-4.2777,4.401-10.736,7.375-13.062"/>
   </g>
   <g id="g4734" transform="matrix(-0.55339155,0.83292124,-0.83292124,-0.55339155,1315.8837,-633.89741)">
    <path id="path4736" d="M807.38,23.625c6.55-22.494,14.8-19.514,22.62-1.375l-1.5625,1.375,12.938-0.125,5.375-11.188-3.9375,1.125c-2.06-7.9523-16.12-4.0835-24.7-5.812"/>
    <path id="path4738" d="m806.88,22.5,12.875,6.25c2.1844-4.2777,4.401-10.736,7.375-13.062"/>
   </g>
  </g>
  <g id="g4759" stroke-linejoin="miter" stroke-linecap="butt" stroke-miterlimit="4" stroke-dasharray="none" stroke-width="2" fill="none">
   <path id="path4751" d="m881.81,7.4375c-3.7751,25.226,6.4343,26.939,10.438,26.313,3.8979-1.4532,9.579-5.806,10.312-9.9375,1.5041-14.34-14.718-9.4261-20.75-16.375z"/>
   <path id="path4753" d="m905.69,29.187c1.2391-6.7473,12.042-5.2956,15.375-9.625,3.1699,13.699-4.7416,19.861-6.8125,19.062-2.9976,0.6155-8.8777-5.0641-8.5625-9.4375z"/>
   <path id="path4755" d="m887,16.75c10.072,9.0224,12.672,17.366,16.375,25,2.4096-5.0576,6.5189-9.1439,11.25-12.875"/>
   <path id="path4757" d="m880,60.098c4.554,0.44461,14.939,5.4405,21.387,5.9109,6.5286,0.47629,17.926-8.3112,28.194-12.186-5.04-4.645-6.96-4.876-20.58,2.177h-16,16c1.9244-0.72825,2.6653-4.9018-0.36778-5.9786h-9.6343c-3.99-5.469-12.45-3.331-19-3.977v15.956h-10.2v-18h10.2v2.044"/>
  </g>
  <g id="g4801" stroke-linejoin="miter" stroke-linecap="butt" stroke-miterlimit="4" stroke-dasharray="none" stroke-width="2" fill="none">
   <path id="path4765" d="m942,29.5,0,36.697,28.3,0,0-36.697z"/>
   <path id="path4767" d="m948,29.073,0-13.965,16.67,0,0,13.789"/>
   <path id="path4769" d="m956.19,6.2692,0,8.6621"/>
   <path id="path4771" d="m951.59,18.997,8.4853,0"/>
   <path id="path4773" d="m951.41,25.184,9.1924,0"/>
   <path id="path4775" d="m947.52,37.382,17.147,0"/>
   <path id="path4779" d="M947.88,53.645,964.85,53.469"/>
   <path id="path4781" d="m954.2,66.197,0-6.3965,3.93,0,0,6.2197"/>
   <path id="path4783" d="m947.61,45.602,17.147,0"/>
   <path id="path4785" d="m976.6,19.527,0,46.758,24.307,0,0-46.758z"/>
   <path id="path4787" d="m980.32,25.5,16.352,0"/>
   <path id="path4789" d="m980.23,31.51,16.352,0"/>
   <path id="path4791" d="m980.23,37.521,16.352,0"/>
   <path id="path4793" d="m980.23,49.521,16.352,0"/>
   <path id="path4795" d="m980.23,55.521,16.352,0"/>
   <path id="path4797" d="m980.23,43.521,16.352,0"/>
   <path id="path4799" d="m986.59,66.197,0.0884-4.0659,4.4194,0,0.0884,4.2426"/>
  </g>
  <g id="g4832" stroke-linejoin="miter" transform="translate(-0.73136293,0.82935687)" stroke-linecap="butt" stroke-dasharray="none" stroke-miterlimit="4" stroke-width="2" fill="none">
   <path id="path4822" d="m87.375,56.719c20.248,15.681,41.243-0.9478,47.25-48.094-34.383,5.6479-65.648,18.082-47.812,47.5z"/>
   <path id="path4824" d="m83.25,60.75,30.875-30.5"/>
   <path id="path4826" d="m93.5,38,0.5,11.75,12,0.125"/>
   <path id="path4828" d="m103.5,29,0.5,11,9.875,0"/>
   <path id="path4830" d="m113.62,25.125,0.125,5.375,4.5-0.25"/>
  </g>
 </g>
</g>
</svg>
