<?xml version="1.0" encoding="utf-8"?>
<!-- Generator: Adobe Illustrator 16.0.0, SVG Export Plug-In . SVG Version: 6.00 Build 0)  -->
<!DOCTYPE svg PUBLIC "-//W3C//DTD SVG 1.1//EN" "http://www.w3.org/Graphics/SVG/1.1/DTD/svg11.dtd">
<svg version="1.1" id="Layer_1" xmlns="http://www.w3.org/2000/svg" xmlns:xlink="http://www.w3.org/1999/xlink" x="0px" y="0px"
	 viewBox="14.5 73.5 584 585" enable-background="new 14.5 73.5 584 585" xml:space="preserve">
<g>
	<g>
		<path fill="#1F77B4" stroke="#1F77B4" d="M306.001,79.991c158.146,0,286.351,128.204,286.351,286.351
			c0,74.932-29.373,146.879-81.814,200.401l-76.7-75.146c69.177-70.602,68.019-183.911-2.582-253.088
			c-33.454-32.776-78.423-51.136-125.254-51.136V79.991z"/>
	</g>
	<g>
		<path fill="#FF7F0E" stroke="#FF7F0E" d="M510.537,566.746c-110.68,112.963-291.978,114.813-404.941,4.135
			C-7.367,460.201-9.218,278.903,101.461,165.939c53.862-54.97,127.583-85.949,204.54-85.949v107.381
			c-98.843,0-178.97,80.127-178.97,178.97c0,98.842,80.127,178.969,178.97,178.969c48.101,0,94.173-19.359,127.836-53.719
			L510.537,566.746z"/>
	</g>
</g>
</svg>
