<?xml version="1.0" encoding="utf-8"?>
<!-- Generator: Adobe Illustrator 16.0.0, SVG Export Plug-In . SVG Version: 6.00 Build 0)  -->
<!DOCTYPE svg PUBLIC "-//W3C//DTD SVG 1.1//EN" "http://www.w3.org/Graphics/SVG/1.1/DTD/svg11.dtd">
<svg version="1.1" id="Layer_1" xmlns="http://www.w3.org/2000/svg" xmlns:xlink="http://www.w3.org/1999/xlink" x="0px" y="0px"
	  viewBox="12.5 80.5 599.5 598" enable-background="new 12.5 80.5 599.5 598" xml:space="preserve">
<g>
	<g>
		<path fill="#1F77B4" stroke="#1F77B4" d="M311.533,85.468c162.101,0,293.51,131.409,293.51,293.509
			c0,51.521-13.562,102.134-39.324,146.754l-95.319-55.03c50.658-87.743,20.594-199.935-67.143-250.59
			c-27.889-16.102-59.52-24.578-91.724-24.578V85.468z"/>
	</g>
	<g>
		<path fill="#FF7F0E" stroke="#FF7F0E" d="M565.719,525.731c-81.051,140.384-260.556,188.484-400.939,107.431
			C120.158,607.4,83.108,570.35,57.346,525.731l95.318-55.03c50.659,87.739,162.851,117.797,250.593,67.143
			c27.886-16.103,51.044-39.257,67.143-67.143L565.719,525.731z"/>
	</g>
	<g>
		<path fill="#2CA02C" stroke="#2CA02C" d="M57.343,525.731c-81.047-140.384-32.95-319.892,107.434-400.942
			c44.617-25.759,95.229-39.324,146.754-39.324V195.53c-101.313,0-183.443,82.131-183.443,183.444
			c0,32.2,8.479,63.834,24.574,91.723L57.343,525.731z"/>
	</g>
</g>
</svg>
