<?xml version="1.0" encoding="utf-8"?>
<!-- Generator: Adobe Illustrator 18.0.0, SVG Export Plug-In . SVG Version: 6.00 Build 0)  -->
<!DOCTYPE svg PUBLIC "-//W3C//DTD SVG 1.1//EN" "http://www.w3.org/Graphics/SVG/1.1/DTD/svg11.dtd">
<svg version="1.1" id="Layer_1" xmlns="http://www.w3.org/2000/svg" xmlns:xlink="http://www.w3.org/1999/xlink" x="0px" y="0px"
	 viewBox="0 0 43 43" enable-background="new 0 0 43 43" xml:space="preserve">
<path fill="#FFFFFF" d="M38.1,3.3H5.4c-1.5,0-2.6,1.3-2.6,2.8v19.7c0,1.6,1.2,2.8,2.6,2.8h32.7c1.5,0,2.6-1.3,2.6-2.8V6.1
	C40.7,4.5,39.6,3.3,38.1,3.3z M12.9,21c-2.8,0-5.1-2.3-5.1-5.1c0-2.8,2.3-5.1,5.1-5.1c1.4,0,2.7,0.6,3.6,1.5l0,0l-3.6,3.6l3.6,3.6
	C15.6,20.4,14.3,21,12.9,21z M18.2,19.5L18.2,19.5l-3.6-3.6l3.6-3.6l0,0c0.9,0.9,1.5,2.2,1.5,3.6C19.6,17.3,19.1,18.6,18.2,19.5z
	 M24.8,21h-1.1v-2.5h1.1V21z M27.4,21h-1.1v-5.1h1.1V21z M29.9,21h-1.1v-7.6h1.1V21z M32.4,21h-1.1V10.9h1.1V21z M35,21h-1.1v-7.6
	H35V21z"/>
<polygon fill="#FFFFFF" stroke="#FFFFFF" stroke-linecap="round" stroke-linejoin="round" stroke-miterlimit="10" points="
	28.1,41.3 23,38.7 20.5,38.7 15.4,41.3 12.9,41.3 20.5,33.7 20.5,29.9 23,29.9 23,33.7 30.6,41.3 "/>
<rect x="20.5" y="0.8" fill="#FFFFFF" stroke="#FFFFFF" stroke-linecap="round" stroke-linejoin="round" stroke-miterlimit="10" width="2.5" height="1.3"/>
</svg>
