<?xml version="1.0" encoding="utf-8"?>
<!-- Generator: Adobe Illustrator 18.0.0, SVG Export Plug-In . SVG Version: 6.00 Build 0)  -->
<!DOCTYPE svg PUBLIC "-//W3C//DTD SVG 1.1//EN" "http://www.w3.org/Graphics/SVG/1.1/DTD/svg11.dtd">
<svg version="1.1" id="Layer_1" xmlns="http://www.w3.org/2000/svg" xmlns:xlink="http://www.w3.org/1999/xlink" x="0px" y="0px"
	 viewBox="0 0 43 43" enable-background="new 0 0 43 43" xml:space="preserve">
<path fill="#FFFFFF" d="M1.8,32v-1.4h40.5V32c0,0.6-0.5,1.1-1.1,1.1H2.9C2.3,33.1,1.8,32.6,1.8,32z"/>
<path fill="#FFFFFF" d="M20.5,15.6c-0.9-0.9-2.2-1.5-3.6-1.5c-2.8,0-5.1,2.3-5.1,5.1s2.3,5.1,5.1,5.1c1.4,0,2.7-0.6,3.6-1.5
	l-3.6-3.6L20.5,15.6"/>
<path fill="#FFFFFF" d="M22.2,15.6c0.9,0.9,1.5,2.2,1.5,3.6c0,1.4-0.6,2.7-1.5,3.6l-3.6-3.6L22.2,15.6z"/>
<rect x="27.1" y="16.1" fill="#FFFFFF" stroke="#FFFFFF" stroke-linecap="round" stroke-linejoin="round" stroke-miterlimit="10" width="5.1" height="0.6"/>
<rect x="27.1" y="18.7" fill="#FFFFFF" stroke="#FFFFFF" stroke-linecap="round" stroke-linejoin="round" stroke-miterlimit="10" width="5.1" height="0.6"/>
<rect x="27.1" y="21.2" fill="#FFFFFF" stroke="#FFFFFF" stroke-linecap="round" stroke-linejoin="round" stroke-miterlimit="10" width="2.5" height="0.6"/>
<path fill="#FFFFFF" d="M36.1,9.1H7.9c-0.6,0-1.1,0.5-1.1,1.1v19.1h30.4V10.2C37.2,9.6,36.7,9.1,36.1,9.1z M22,9.8
	c0.3,0,0.6,0.3,0.6,0.6c0,0.3-0.3,0.6-0.6,0.6s-0.6-0.3-0.6-0.6C21.4,10.1,21.7,9.8,22,9.8z M34.7,26.8H9.3V11.6h25.3V26.8z"/>
</svg>
