<?xml version="1.0" encoding="utf-8"?>
<!-- Generator: Adobe Illustrator 18.0.0, SVG Export Plug-In . SVG Version: 6.00 Build 0)  -->
<!DOCTYPE svg PUBLIC "-//W3C//DTD SVG 1.1//EN" "http://www.w3.org/Graphics/SVG/1.1/DTD/svg11.dtd">
<svg version="1.1" id="Layer_1" xmlns="http://www.w3.org/2000/svg" xmlns:xlink="http://www.w3.org/1999/xlink" x="0px" y="0px"
	 viewBox="0 0 43 43" enable-background="new 0 0 43 43" xml:space="preserve">
<path fill="none" stroke="#FFFFFF" stroke-linecap="round" stroke-linejoin="round" stroke-miterlimit="10" d="M1.8,31.5v-1.4h40.5
	v1.4c0,0.6-0.5,1.1-1.1,1.1H2.9C2.3,32.6,1.8,32.1,1.8,31.5z"/>
<path fill="none" stroke="#FFFFFF" stroke-linecap="round" stroke-linejoin="round" stroke-miterlimit="10" d="M6.8,30.1V11
	c0-0.6,0.5-1.1,1.1-1.1h28.1c0.6,0,1.1,0.5,1.1,1.1v19.1"/>
<line fill="none" stroke="#FFFFFF" stroke-linecap="round" stroke-linejoin="round" stroke-miterlimit="10" x1="9.3" y1="12.4" x2="9.3" y2="27.6"/>
<line fill="none" stroke="#FFFFFF" stroke-linecap="round" stroke-linejoin="round" stroke-miterlimit="10" x1="9.3" y1="12.4" x2="34.7" y2="12.4"/>
<line fill="none" stroke="#FFFFFF" stroke-linecap="round" stroke-linejoin="round" stroke-miterlimit="10" x1="34.7" y1="12.4" x2="34.7" y2="27.6"/>
<line fill="none" stroke="#FFFFFF" stroke-linecap="round" stroke-linejoin="round" stroke-miterlimit="10" x1="9.3" y1="27.6" x2="34.7" y2="27.6"/>
<circle fill="none" stroke="#FFFFFF" stroke-linecap="round" stroke-linejoin="round" stroke-miterlimit="10" cx="22.1" cy="11.1" r="0.3"/>
<path fill="none" stroke="#FFFFFF" stroke-linecap="round" stroke-linejoin="round" stroke-miterlimit="10" d="M20.5,23.6
	c-0.9,0.9-2.2,1.5-3.6,1.5c-2.8,0-5.1-2.3-5.1-5.1s2.3-5.1,5.1-5.1c1.4,0,2.7,0.6,3.6,1.5"/>
<line fill="none" stroke="#FFFFFF" stroke-linecap="round" stroke-linejoin="round" stroke-miterlimit="10" x1="16.9" y1="20" x2="20.5" y2="16.4"/>
<line fill="none" stroke="#FFFFFF" stroke-linecap="round" stroke-linejoin="round" stroke-miterlimit="10" x1="16.9" y1="20" x2="20.5" y2="23.6"/>
<path fill="none" stroke="#FFFFFF" stroke-linecap="round" stroke-linejoin="round" stroke-miterlimit="10" d="M22.2,16.4
	c0.9,0.9,1.5,2.2,1.5,3.6c0,1.4-0.6,2.7-1.5,3.6L18.6,20L22.2,16.4z"/>
<rect x="27.1" y="16.9" stroke="#FFFFFF" stroke-linecap="round" stroke-linejoin="round" stroke-miterlimit="10" width="5.1" height="0.6"/>
<rect x="27.1" y="19.4" stroke="#FFFFFF" stroke-linecap="round" stroke-linejoin="round" stroke-miterlimit="10" width="5.1" height="0.6"/>
<rect x="27.1" y="22" stroke="#FFFFFF" stroke-linecap="round" stroke-linejoin="round" stroke-miterlimit="10" width="2.5" height="0.6"/>
</svg>
