<?xml version="1.0" encoding="utf-8"?>
<!-- Generator: Adobe Illustrator 18.0.0, SVG Export Plug-In . SVG Version: 6.00 Build 0)  -->
<!DOCTYPE svg PUBLIC "-//W3C//DTD SVG 1.1//EN" "http://www.w3.org/Graphics/SVG/1.1/DTD/svg11.dtd">
<svg version="1.1" id="Layer_1" xmlns="http://www.w3.org/2000/svg" xmlns:xlink="http://www.w3.org/1999/xlink" x="0px" y="0px"
	 viewBox="0 0 43 43" enable-background="new 0 0 43 43" xml:space="preserve">
<path fill="none" stroke="#000000" stroke-linecap="round" stroke-linejoin="round" stroke-miterlimit="10" d="M27.1,30.3"/>
<path fill="#FFFFFF" d="M17.8,39.9c-0.3-0.2-0.6-0.5-0.6-1v-1.4l9.8-2.5v2.5L17.8,39.9"/>
<path fill="#FFFFFF" d="M22.1,0.8c-6.8,0-12.3,5.5-12.3,12.3c0,9.8,7.4,7.7,7.4,17.2h9.8c0-9.5,7.4-7.4,7.4-17.2
	C34.4,6.3,28.9,0.8,22.1,0.8z M29.1,11.3c0,0-3.2,2.6-3.5,2.9c0.1,0.5,1.1,4.4,1.1,4.4c0,0,0,0.1,0,0.1c0,0.1-0.1,0.3-0.2,0.3
	c-0.1,0.1-0.3,0.1-0.5,0c0,0-3.5-2.2-3.8-2.5c-0.4,0.3-3.9,2.5-3.9,2.5c-0.1,0.1-0.3,0.1-0.5,0c-0.1-0.1-0.2-0.3-0.2-0.4l1.2-4.4
	c0.1-0.2,0.3-0.3,0.5-0.3c0.2,0.1,0.3,0.2,0.3,0.4c0,0,0,0.1,0,0.1c0,0-0.6,2.2-0.9,3.4c1.1-0.7,3.2-2.1,3.2-2.1
	c0.1-0.1,0.3-0.1,0.4,0c0,0,2.1,1.4,3.2,2.1c-0.3-1.2-0.9-3.7-0.9-3.7c0,0,0-0.1,0-0.1c0-0.1,0.1-0.2,0.2-0.3c0,0,1.9-1.6,2.9-2.4
	c-1.3-0.1-3.8-0.2-3.8-0.2c-0.2,0-0.3-0.1-0.4-0.3c0,0-0.9-2.4-1.4-3.6c-0.5,1.2-1.4,3.6-1.4,3.6c-0.1,0.1-0.2,0.3-0.4,0.3l-4.9,0.3
	c-0.2,0-0.4-0.2-0.4-0.4c0,0,0,0,0,0c0-0.2,0.2-0.4,0.4-0.4c0,0,4.1-0.2,4.6-0.2c0.2-0.4,1.7-4.3,1.7-4.3c0.1-0.2,0.2-0.3,0.4-0.3
	c0.2,0,0.3,0.1,0.4,0.3c0,0,1.5,3.9,1.7,4.3c0.5,0,4.6,0.3,4.6,0.3c0.2,0,0.3,0.1,0.4,0.3c0,0,0,0.1,0,0.1
	C29.2,11.1,29.2,11.3,29.1,11.3z"/>
<polygon fill="#FFFFFF" points="27.1,32.7 27.1,30.3 17.2,32.7 17.2,35.2 "/>
<polyline fill="#FFFFFF" points="26.5,39.9 17.7,39.9 20.3,41.3 24,41.3 26.5,39.9 "/>
</svg>
