<?xml version="1.0" encoding="utf-8"?>
<!-- Generator: Adobe Illustrator 18.0.0, SVG Export Plug-In . SVG Version: 6.00 Build 0)  -->
<!DOCTYPE svg PUBLIC "-//W3C//DTD SVG 1.1//EN" "http://www.w3.org/Graphics/SVG/1.1/DTD/svg11.dtd">
<svg version="1.1" id="Layer_1" xmlns="http://www.w3.org/2000/svg" xmlns:xlink="http://www.w3.org/1999/xlink" x="0px" y="0px"
	 viewBox="0 0 43 43" enable-background="new 0 0 43 43" xml:space="preserve">
<path fill="none" stroke="#FFFFFF" stroke-linecap="round" stroke-linejoin="round" stroke-miterlimit="10" d="M1.8,21
	C1.8,9.8,10.8,0.8,22,0.8S42.3,9.8,42.3,21"/>
<path fill="#FFFFFF" stroke="#FFFFFF" stroke-miterlimit="10" d="M26,21c0-2.2-1.8-4-4-4s-4,1.8-4,4H1.8c0,11.2,9.1,20.3,20.3,20.3
	S42.3,32.2,42.3,21H26z M22,34.1c-0.6,0-1.1-0.5-1.1-1.1c0-0.6,0.5-1.1,1.1-1.1s1.1,0.5,1.1,1.1C23.1,33.6,22.6,34.1,22,34.1z
	 M23.1,30.1c0,0.6-0.4,1-1,1h-0.3c-0.6,0-1-0.4-1-1v-4.9c0-0.6,0.4-1,1-1h0.3c0.6,0,1,0.4,1,1V30.1z"/>
<g>
	<g>
		<line fill="none" stroke="#FFFFFF" stroke-miterlimit="10" x1="36.1" y1="6.5" x2="35.8" y2="6.9"/>
		
			<line fill="none" stroke="#FFFFFF" stroke-miterlimit="10" stroke-dasharray="1.0133,1.0133" x1="35.1" y1="7.6" x2="25.5" y2="17.4"/>
		<line fill="none" stroke="#FFFFFF" stroke-miterlimit="10" x1="25.2" y1="17.7" x2="24.8" y2="18.1"/>
	</g>
</g>
<path fill="#FFFFFF" d="M25.4,19.5L25.4,19.5c-0.2-0.4,0-0.8,0.3-1l12.1-5.3c0.3-0.2,0.8,0,0.9,0.4l0,0c0.2,0.4,0,0.8-0.3,0.9
	l-12.1,5.3C26,20,25.6,19.9,25.4,19.5z"/>
</svg>
