<?xml version="1.0" encoding="utf-8"?>
<!-- Generator: Adobe Illustrator 18.0.0, SVG Export Plug-In . SVG Version: 6.00 Build 0)  -->
<!DOCTYPE svg PUBLIC "-//W3C//DTD SVG 1.1//EN" "http://www.w3.org/Graphics/SVG/1.1/DTD/svg11.dtd">
<svg version="1.1" id="Layer_1" xmlns="http://www.w3.org/2000/svg" xmlns:xlink="http://www.w3.org/1999/xlink" x="0px" y="0px"
	 viewBox="0 0 43 43" enable-background="new 0 0 43 43" xml:space="preserve">
<line fill="none" stroke="#FFFFFF" stroke-linecap="round" stroke-linejoin="round" stroke-miterlimit="10" x1="34.8" y1="33.7" x2="34.8" y2="25.7"/>
<line fill="none" stroke="#FFFFFF" stroke-linecap="round" stroke-linejoin="round" stroke-miterlimit="10" x1="39.3" y1="25.7" x2="39.3" y2="33.7"/>
<path fill="none" stroke="#FFFFFF" stroke-linecap="round" stroke-linejoin="round" stroke-miterlimit="10" d="M39.3,18
	c1.3,0.8,2.2,2.2,2.2,3.9c0,1.7-0.9,3.1-2.2,3.9"/>
<path fill="none" stroke="#FFFFFF" stroke-linecap="round" stroke-linejoin="round" stroke-miterlimit="10" d="M34.7,25.8
	c-1.3-0.8-2.2-2.2-2.2-3.9c0-1.7,0.9-3.1,2.2-3.9"/>
<path fill="none" stroke="#FFFFFF" stroke-linecap="round" stroke-linejoin="round" stroke-miterlimit="10" d="M39.3,41.5
	c1.3-0.8,2.2-2.2,2.2-3.9s-0.9-3.1-2.2-3.9"/>
<path fill="none" stroke="#FFFFFF" stroke-linecap="round" stroke-linejoin="round" stroke-miterlimit="10" d="M34.7,33.7
	c-1.3,0.8-2.2,2.2-2.2,3.9s0.9,3.1,2.2,3.9"/>
<line fill="none" stroke="#FFFFFF" stroke-linecap="round" stroke-linejoin="round" stroke-miterlimit="10" x1="34.8" y1="21.9" x2="34.8" y2="18"/>
<line fill="none" stroke="#FFFFFF" stroke-linecap="round" stroke-linejoin="round" stroke-miterlimit="10" x1="39.3" y1="21.9" x2="39.3" y2="18"/>
<line fill="none" stroke="#FFFFFF" stroke-linecap="round" stroke-linejoin="round" stroke-miterlimit="10" x1="34.8" y1="37.6" x2="34.8" y2="41.5"/>
<line fill="none" stroke="#FFFFFF" stroke-linecap="round" stroke-linejoin="round" stroke-miterlimit="10" x1="39.3" y1="37.6" x2="39.3" y2="41.5"/>
<path fill="none" stroke="#FFFFFF" stroke-linecap="round" stroke-linejoin="round" stroke-miterlimit="10" d="M37,21.9
	c0-0.1,0-0.2,0-0.4V3c0-1.1-0.9-2-2-2H3C1.9,1,1,1.9,1,3v18.5c0,1.1,0.9,2,2,2h29.8"/>
<path fill="none" stroke="#FFFFFF" stroke-linecap="round" stroke-linejoin="round" stroke-miterlimit="10" d="M34.7,28H3
	c-1.1,0-2-0.9-2-2v-4.5"/>
<line fill="none" stroke="#FFFFFF" stroke-linecap="round" stroke-linejoin="round" stroke-miterlimit="10" x1="14.5" y1="28" x2="14.5" y2="32.5"/>
<line fill="none" stroke="#FFFFFF" stroke-linecap="round" stroke-linejoin="round" stroke-miterlimit="10" x1="23.5" y1="28" x2="23.5" y2="32.5"/>
<path fill="none" stroke="#FFFFFF" stroke-linecap="round" stroke-linejoin="round" stroke-miterlimit="10" d="M23.5,32.5
	c0,5,2,9,4.5,9"/>
<path fill="none" stroke="#FFFFFF" stroke-linecap="round" stroke-linejoin="round" stroke-miterlimit="10" d="M14.5,32.5
	c0,5-2,9-4.5,9"/>
<line fill="none" stroke="#FFFFFF" stroke-linecap="round" stroke-linejoin="round" stroke-miterlimit="10" x1="10" y1="41.5" x2="28" y2="41.5"/>
<g>
	<g>
		<line fill="none" stroke="#FFFFFF" stroke-linecap="round" stroke-linejoin="round" x1="5.5" y1="19" x2="5.5" y2="18"/>
		
			<line fill="none" stroke="#FFFFFF" stroke-linecap="round" stroke-linejoin="round" stroke-dasharray="2.3,2.3" x1="5.5" y1="15.7" x2="5.5" y2="7.7"/>
		<line fill="none" stroke="#FFFFFF" stroke-linecap="round" stroke-linejoin="round" x1="5.5" y1="6.5" x2="5.5" y2="5.5"/>
	</g>
</g>
<g>
	<g>
		<line fill="none" stroke="#FFFFFF" stroke-linecap="round" stroke-linejoin="round" x1="5.5" y1="5.5" x2="6.5" y2="5.5"/>
		<line fill="none" stroke="#FFFFFF" stroke-linecap="round" stroke-linejoin="round" x1="9" y1="5.5" x2="10" y2="5.5"/>
	</g>
</g>
<g>
	<g>
		<line fill="none" stroke="#FFFFFF" stroke-linecap="round" stroke-linejoin="round" x1="10" y1="5.5" x2="10" y2="6.5"/>
		
			<line fill="none" stroke="#FFFFFF" stroke-linecap="round" stroke-linejoin="round" stroke-dasharray="2.3,2.3" x1="10" y1="8.8" x2="10" y2="16.8"/>
		<line fill="none" stroke="#FFFFFF" stroke-linecap="round" stroke-linejoin="round" x1="10" y1="18" x2="10" y2="19"/>
	</g>
</g>
<g>
	<g>
		<line fill="none" stroke="#FFFFFF" stroke-linecap="round" stroke-linejoin="round" x1="10" y1="19" x2="11" y2="19"/>
		<line fill="none" stroke="#FFFFFF" stroke-linecap="round" stroke-linejoin="round" x1="13.5" y1="19" x2="14.5" y2="19"/>
	</g>
</g>
<g>
	<g>
		<line fill="none" stroke="#FFFFFF" stroke-linecap="round" stroke-linejoin="round" x1="14.5" y1="19" x2="14.5" y2="18"/>
		
			<line fill="none" stroke="#FFFFFF" stroke-linecap="round" stroke-linejoin="round" stroke-dasharray="2.3,2.3" x1="14.5" y1="15.7" x2="14.5" y2="7.7"/>
		<line fill="none" stroke="#FFFFFF" stroke-linecap="round" stroke-linejoin="round" x1="14.5" y1="6.5" x2="14.5" y2="5.5"/>
	</g>
</g>
<g>
	<g>
		<line fill="none" stroke="#FFFFFF" stroke-linecap="round" stroke-linejoin="round" x1="14.5" y1="5.5" x2="15.5" y2="5.5"/>
		<line fill="none" stroke="#FFFFFF" stroke-linecap="round" stroke-linejoin="round" x1="18" y1="5.5" x2="19" y2="5.5"/>
	</g>
</g>
<g>
	<g>
		<line fill="none" stroke="#FFFFFF" stroke-linecap="round" stroke-linejoin="round" x1="19" y1="5.5" x2="19" y2="6.5"/>
		
			<line fill="none" stroke="#FFFFFF" stroke-linecap="round" stroke-linejoin="round" stroke-dasharray="2.3,2.3" x1="19" y1="8.8" x2="19" y2="16.8"/>
		<line fill="none" stroke="#FFFFFF" stroke-linecap="round" stroke-linejoin="round" x1="19" y1="18" x2="19" y2="19"/>
	</g>
</g>
<g>
	<g>
		<line fill="none" stroke="#FFFFFF" stroke-linecap="round" stroke-linejoin="round" x1="19" y1="19" x2="20" y2="19"/>
		<line fill="none" stroke="#FFFFFF" stroke-linecap="round" stroke-linejoin="round" x1="22.5" y1="19" x2="23.5" y2="19"/>
	</g>
</g>
<g>
	<g>
		<line fill="none" stroke="#FFFFFF" stroke-linecap="round" stroke-linejoin="round" x1="23.5" y1="19" x2="23.5" y2="18"/>
		
			<line fill="none" stroke="#FFFFFF" stroke-linecap="round" stroke-linejoin="round" stroke-dasharray="2.3,2.3" x1="23.5" y1="15.7" x2="23.5" y2="7.7"/>
		<line fill="none" stroke="#FFFFFF" stroke-linecap="round" stroke-linejoin="round" x1="23.5" y1="6.5" x2="23.5" y2="5.5"/>
	</g>
</g>
<g>
	<g>
		<line fill="none" stroke="#FFFFFF" stroke-linecap="round" stroke-linejoin="round" x1="23.5" y1="5.5" x2="24.5" y2="5.5"/>
		<line fill="none" stroke="#FFFFFF" stroke-linecap="round" stroke-linejoin="round" x1="27" y1="5.5" x2="28" y2="5.5"/>
	</g>
</g>
<g>
	<g>
		<line fill="none" stroke="#FFFFFF" stroke-linecap="round" stroke-linejoin="round" x1="28" y1="5.5" x2="28" y2="6.5"/>
		
			<line fill="none" stroke="#FFFFFF" stroke-linecap="round" stroke-linejoin="round" stroke-dasharray="2.3,2.3" x1="28" y1="8.8" x2="28" y2="16.8"/>
		<line fill="none" stroke="#FFFFFF" stroke-linecap="round" stroke-linejoin="round" x1="28" y1="18" x2="28" y2="19"/>
	</g>
</g>
<g>
	<g>
		<line fill="none" stroke="#FFFFFF" stroke-linecap="round" stroke-linejoin="round" x1="28" y1="19" x2="29" y2="19"/>
		<line fill="none" stroke="#FFFFFF" stroke-linecap="round" stroke-linejoin="round" x1="31.5" y1="19" x2="32.5" y2="19"/>
	</g>
</g>
<g>
	<g>
		<line fill="none" stroke="#FFFFFF" stroke-linecap="round" stroke-linejoin="round" x1="32.5" y1="19" x2="32.5" y2="18"/>
		
			<line fill="none" stroke="#FFFFFF" stroke-linecap="round" stroke-linejoin="round" stroke-dasharray="2.3,2.3" x1="32.5" y1="15.7" x2="32.5" y2="7.7"/>
		<line fill="none" stroke="#FFFFFF" stroke-linecap="round" stroke-linejoin="round" x1="32.5" y1="6.5" x2="32.5" y2="5.5"/>
	</g>
</g>
<path fill="none" stroke="#FFFFFF" stroke-linecap="round" stroke-linejoin="round" stroke-miterlimit="10" d="M34.7,37.6
	c0.7-0.4,1.4-0.6,2.3-0.6c0.8,0,1.6,0.2,2.3,0.6"/>
<path fill="none" stroke="#FFFFFF" stroke-linecap="round" stroke-linejoin="round" stroke-miterlimit="10" d="M39.3,21.9
	c-0.7,0.4-1.4,0.6-2.3,0.6c-0.8,0-1.6-0.2-2.3-0.6"/>
</svg>
