<?xml version="1.0" encoding="utf-8"?>
<!-- Generator: Adobe Illustrator 18.0.0, SVG Export Plug-In . SVG Version: 6.00 Build 0)  -->
<!DOCTYPE svg PUBLIC "-//W3C//DTD SVG 1.1//EN" "http://www.w3.org/Graphics/SVG/1.1/DTD/svg11.dtd">
<svg version="1.1" id="Layer_1" xmlns="http://www.w3.org/2000/svg" xmlns:xlink="http://www.w3.org/1999/xlink" x="0px" y="0px"
	 viewBox="0 0 43 43" enable-background="new 0 0 43 43" xml:space="preserve">
<path fill="none" stroke="#FFFFFF" stroke-linecap="round" stroke-linejoin="round" stroke-miterlimit="10" d="M32.4,27.9H3.2
	c-1.1,0-2-0.9-2-2v-4.4"/>
<path fill="#FFFFFF" stroke="#FFFFFF" stroke-linecap="round" stroke-linejoin="round" stroke-miterlimit="10" d="M23.5,27.9v4.4
	c0,4.9,2,8.9,4.4,8.9H10.1c2.5,0,4.4-4,4.4-8.9v-4.4"/>
<g>
	<path fill="#FFFFFF" d="M36.3,3.2c0-0.8-0.7-1.5-1.5-1.5H3.2c-0.8,0-1.5,0.7-1.5,1.5v18.3c0,0.8,0.7,1.5,1.5,1.5h26.5
		c-0.1-0.4-0.1-0.8-0.1-1.1c0-2.3,1.1-4.3,2.7-5.6c-0.3,0-0.5-0.2-0.5-0.5v-2.3c0-0.3,0.2-0.5,0.5-0.5s0.5,0.2,0.5,0.5v2.3v0.1
		c1-0.7,2.2-1.1,3.5-1.2V3.2z M6.2,19c0,0.3-0.2,0.5-0.5,0.5S5.2,19.3,5.2,19v-1c0-0.3,0.2-0.5,0.5-0.5s0.5,0.2,0.5,0.5V19z
		 M6.2,15.8c0,0.3-0.2,0.5-0.5,0.5S5.2,16,5.2,15.8v-2.3c0-0.3,0.2-0.5,0.5-0.5s0.5,0.2,0.5,0.5V15.8z M6.2,11.2
		c0,0.3-0.2,0.5-0.5,0.5s-0.5-0.2-0.5-0.5V8.9c0-0.3,0.2-0.5,0.5-0.5s0.5,0.2,0.5,0.5V11.2z M6.7,6.2H6.2v0.5C6.2,7,6,7.2,5.7,7.2
		S5.2,6.9,5.2,6.7v-1c0-0.3,0.2-0.5,0.5-0.5h1c0.3,0,0.5,0.2,0.5,0.5S6.9,6.2,6.7,6.2z M8.7,5.7c0-0.3,0.2-0.5,0.5-0.5h1
		c0.3,0,0.5,0.2,0.5,0.5v1c0,0.3-0.2,0.5-0.5,0.5S9.6,6.9,9.6,6.7V6.2H9.1C8.9,6.2,8.7,6,8.7,5.7z M10.1,11.7
		c-0.3,0-0.5-0.2-0.5-0.5V8.9c0-0.3,0.2-0.5,0.5-0.5s0.5,0.2,0.5,0.5v2.3C10.6,11.5,10.4,11.7,10.1,11.7z M10.6,13.5v2.3
		c0,0.3-0.2,0.5-0.5,0.5S9.6,16,9.6,15.8v-2.3c0-0.3,0.2-0.5,0.5-0.5S10.6,13.2,10.6,13.5z M11.1,19.5h-1c-0.3,0-0.5-0.2-0.5-0.5v-1
		c0-0.3,0.2-0.5,0.5-0.5s0.5,0.2,0.5,0.5v0.5h0.5c0.3,0,0.5,0.2,0.5,0.5S11.4,19.5,11.1,19.5z M15.1,19c0,0.3-0.2,0.5-0.5,0.5h-1
		c-0.3,0-0.5-0.2-0.5-0.5s0.2-0.5,0.5-0.5h0.5V18c0-0.3,0.2-0.5,0.5-0.5s0.5,0.2,0.5,0.5V19z M15.1,15.8c0,0.3-0.2,0.5-0.5,0.5
		s-0.5-0.2-0.5-0.5v-2.3c0-0.3,0.2-0.5,0.5-0.5s0.5,0.2,0.5,0.5V15.8z M15.1,11.2c0,0.3-0.2,0.5-0.5,0.5s-0.5-0.2-0.5-0.5V8.9
		c0-0.3,0.2-0.5,0.5-0.5s0.5,0.2,0.5,0.5V11.2z M15.6,6.2h-0.5v0.5c0,0.3-0.2,0.5-0.5,0.5S14.1,7,14.1,6.7v-1c0-0.3,0.2-0.5,0.5-0.5
		h1c0.3,0,0.5,0.2,0.5,0.5S15.8,6.2,15.6,6.2z M17.5,5.7c0-0.3,0.2-0.5,0.5-0.5h1c0.3,0,0.5,0.2,0.5,0.5v1c0,0.3-0.2,0.5-0.5,0.5
		S18.5,7,18.5,6.7V6.2H18C17.8,6.2,17.5,6,17.5,5.7z M19,11.7c-0.3,0-0.5-0.2-0.5-0.5V8.9c0-0.3,0.2-0.5,0.5-0.5s0.5,0.2,0.5,0.5
		v2.3C19.5,11.5,19.3,11.7,19,11.7z M19.5,13.5v2.3c0,0.3-0.2,0.5-0.5,0.5s-0.5-0.2-0.5-0.5v-2.3c0-0.3,0.2-0.5,0.5-0.5
		C19.3,13,19.5,13.2,19.5,13.5z M20,19.5h-1c-0.3,0-0.5-0.2-0.5-0.5v-1c0-0.3,0.2-0.5,0.5-0.5s0.5,0.2,0.5,0.5v0.5H20
		c0.3,0,0.5,0.2,0.5,0.5S20.3,19.5,20,19.5z M24,19c0,0.3-0.2,0.5-0.5,0.5h-1c-0.3,0-0.5-0.2-0.5-0.5s0.2-0.5,0.5-0.5H23V18
		c0-0.3,0.2-0.5,0.5-0.5S24,17.8,24,18V19z M24,15.8c0,0.3-0.2,0.5-0.5,0.5S23,16,23,15.8v-2.3c0-0.3,0.2-0.5,0.5-0.5
		s0.5,0.2,0.5,0.5V15.8z M24,11.2c0,0.3-0.2,0.5-0.5,0.5S23,11.5,23,11.2V8.9c0-0.3,0.2-0.5,0.5-0.5S24,8.7,24,8.9V11.2z M24.5,6.2
		H24v0.5c0,0.3-0.2,0.5-0.5,0.5S23,6.9,23,6.7v-1c0-0.3,0.2-0.5,0.5-0.5h1c0.3,0,0.5,0.2,0.5,0.5S24.7,6.2,24.5,6.2z M26.4,5.7
		c0-0.3,0.2-0.5,0.5-0.5h1c0.3,0,0.5,0.2,0.5,0.5v1c0,0.3-0.2,0.5-0.5,0.5S27.4,7,27.4,6.7V6.2h-0.5C26.7,6.2,26.4,6,26.4,5.7z
		 M27.9,11.7c-0.3,0-0.5-0.2-0.5-0.5V8.9c0-0.3,0.2-0.5,0.5-0.5s0.5,0.2,0.5,0.5v2.3C28.4,11.5,28.2,11.7,27.9,11.7z M28.4,13.5v2.3
		c0,0.3-0.2,0.5-0.5,0.5s-0.5-0.2-0.5-0.5v-2.3c0-0.3,0.2-0.5,0.5-0.5S28.4,13.2,28.4,13.5z M28.9,19.5h-1c-0.3,0-0.5-0.2-0.5-0.5
		v-1c0-0.3,0.2-0.5,0.5-0.5s0.5,0.2,0.5,0.5v0.5h0.5c0.3,0,0.5,0.2,0.5,0.5S29.2,19.5,28.9,19.5z M32.9,11.2c0,0.3-0.2,0.5-0.5,0.5
		s-0.5-0.2-0.5-0.5V8.9c0-0.3,0.2-0.5,0.5-0.5s0.5,0.2,0.5,0.5V11.2z M32.9,6.7c0,0.3-0.2,0.5-0.5,0.5S31.9,7,31.9,6.7v-1
		c0-0.3,0.2-0.5,0.5-0.5s0.5,0.2,0.5,0.5V6.7z"/>
	<path d="M32.4,16.3c0.2,0,0.4-0.2,0.5-0.4C32.7,16,32.5,16.1,32.4,16.3C32.3,16.3,32.3,16.3,32.4,16.3z"/>
</g>
<path fill="#FFFFFF" stroke="#FFFFFF" stroke-linecap="round" stroke-linejoin="round" stroke-miterlimit="10" d="M39,21.8
	c-0.7,0.4-1.4,0.6-2.2,0.6s-1.6-0.2-2.2-0.6l0,0V18l0,0c-1.3,0.8-2.2,2.2-2.2,3.8c0,1.6,0.9,3.1,2.2,3.8l0,0v7.9l0,0
	c-1.3,0.8-2.2,2.2-2.2,3.8s0.9,3.1,2.2,3.8l0,0v-3.8c0.7-0.4,1.4-0.6,2.2-0.6s1.6,0.2,2.2,0.6l0,0v3.8l0,0c1.3-0.8,2.2-2.2,2.2-3.8
	s-0.9-3.1-2.2-3.8l0,0v-7.9l0,0c1.3-0.8,2.2-2.2,2.2-3.8c0-1.6-0.9-3.1-2.2-3.8l0,0V21.8"/>
<path fill="none" stroke="#FFFFFF" stroke-linecap="round" stroke-linejoin="round" stroke-miterlimit="10" d="M32.4,26.8
	c-1-0.9-1.7-2-2.1-3.4"/>
<path fill="#FFFFFF" d="M30.3,24L30.3,24H3.2c-1.4,0-2.5-1.1-2.5-2.5V3.2c0-1.4,1.1-2.5,2.5-2.5h31.6c1.4,0,2.5,1.1,2.5,2.5v12
	c0,0.3-0.2,0.5-0.5,0.5l0,0c-3.4,0-6.2,2.8-6.2,6.2c0,0.5,0.1,1,0.2,1.5v0.1c0,0.2-0.1,0.5-0.4,0.5H30.3z M3.2,1.7
	c-0.8,0-1.5,0.7-1.5,1.5v18.3c0,0.8,0.7,1.5,1.5,1.5h26.5c-0.1-0.4-0.1-0.8-0.1-1.1c0-3.8,3-6.9,6.7-7.1V3.2c0-0.8-0.7-1.5-1.5-1.5
	H3.2z"/>
<line fill="none" stroke="#FFFFFF" stroke-linecap="round" stroke-linejoin="round" stroke-miterlimit="10" x1="32.4" y1="27.9" x2="32.4" y2="26.8"/>
</svg>
