<?xml version="1.0" encoding="utf-8"?>
<!-- Generator: Adobe Illustrator 18.0.0, SVG Export Plug-In . SVG Version: 6.00 Build 0)  -->
<!DOCTYPE svg PUBLIC "-//W3C//DTD SVG 1.1//EN" "http://www.w3.org/Graphics/SVG/1.1/DTD/svg11.dtd">
<svg version="1.1" id="Layer_1" xmlns="http://www.w3.org/2000/svg" xmlns:xlink="http://www.w3.org/1999/xlink" x="0px" y="0px"
	 viewBox="0 0 43 43" enable-background="new 0 0 43 43" xml:space="preserve">
<line fill="none" stroke="#FFFFFF" stroke-linecap="round" stroke-linejoin="round" stroke-miterlimit="10" x1="1.8" y1="0.8" x2="1.8" y2="41.3"/>
<line fill="none" stroke="#FFFFFF" stroke-linecap="round" stroke-linejoin="round" stroke-miterlimit="10" x1="28.8" y1="0.8" x2="28.8" y2="24.4"/>
<line fill="none" stroke="#FFFFFF" stroke-linecap="round" stroke-linejoin="round" stroke-miterlimit="10" x1="3.4" y1="0.8" x2="5.1" y2="2.4"/>
<line fill="none" stroke="#FFFFFF" stroke-linecap="round" stroke-linejoin="round" stroke-miterlimit="10" x1="5.1" y1="2.4" x2="6.8" y2="0.8"/>
<line fill="none" stroke="#FFFFFF" stroke-linecap="round" stroke-linejoin="round" stroke-miterlimit="10" x1="10.2" y1="0.8" x2="11.9" y2="2.4"/>
<line fill="none" stroke="#FFFFFF" stroke-linecap="round" stroke-linejoin="round" stroke-miterlimit="10" x1="11.9" y1="2.4" x2="13.6" y2="0.8"/>
<line fill="none" stroke="#FFFFFF" stroke-linecap="round" stroke-linejoin="round" stroke-miterlimit="10" x1="16.9" y1="0.8" x2="18.6" y2="2.4"/>
<line fill="none" stroke="#FFFFFF" stroke-linecap="round" stroke-linejoin="round" stroke-miterlimit="10" x1="18.6" y1="2.4" x2="20.3" y2="0.8"/>
<line fill="none" stroke="#FFFFFF" stroke-linecap="round" stroke-linejoin="round" stroke-miterlimit="10" x1="23.7" y1="0.8" x2="25.4" y2="2.4"/>
<line fill="none" stroke="#FFFFFF" stroke-linecap="round" stroke-linejoin="round" stroke-miterlimit="10" x1="25.4" y1="2.4" x2="27.1" y2="0.8"/>
<line fill="none" stroke="#FFFFFF" stroke-linecap="round" stroke-linejoin="round" stroke-miterlimit="10" x1="27.1" y1="0.8" x2="28.8" y2="0.8"/>
<line fill="none" stroke="#FFFFFF" stroke-linecap="round" stroke-linejoin="round" stroke-miterlimit="10" x1="20.3" y1="0.8" x2="23.7" y2="0.8"/>
<line fill="none" stroke="#FFFFFF" stroke-linecap="round" stroke-linejoin="round" stroke-miterlimit="10" x1="13.6" y1="0.8" x2="16.9" y2="0.8"/>
<line fill="none" stroke="#FFFFFF" stroke-linecap="round" stroke-linejoin="round" stroke-miterlimit="10" x1="6.8" y1="0.8" x2="10.2" y2="0.8"/>
<line fill="none" stroke="#FFFFFF" stroke-linecap="round" stroke-linejoin="round" stroke-miterlimit="10" x1="1.8" y1="0.8" x2="3.4" y2="0.8"/>
<line fill="none" stroke="#FFFFFF" stroke-linecap="round" stroke-linejoin="round" stroke-miterlimit="10" x1="11.9" y1="39.6" x2="10.2" y2="41.3"/>
<line fill="none" stroke="#FFFFFF" stroke-linecap="round" stroke-linejoin="round" stroke-miterlimit="10" x1="6.8" y1="41.3" x2="5.1" y2="39.6"/>
<line fill="none" stroke="#FFFFFF" stroke-linecap="round" stroke-linejoin="round" stroke-miterlimit="10" x1="5.1" y1="39.6" x2="3.4" y2="41.3"/>
<line fill="none" stroke="#FFFFFF" stroke-linecap="round" stroke-linejoin="round" stroke-miterlimit="10" x1="3.4" y1="41.3" x2="1.8" y2="41.3"/>
<line fill="none" stroke="#FFFFFF" stroke-linecap="round" stroke-linejoin="round" stroke-miterlimit="10" x1="10.2" y1="41.3" x2="6.8" y2="41.3"/>
<rect x="5.1" y="13.5" stroke="#FFFFFF" stroke-linecap="round" stroke-linejoin="round" stroke-miterlimit="10" width="10.1" height="0.8"/>
<rect x="5.1" y="16.9" stroke="#FFFFFF" stroke-linecap="round" stroke-linejoin="round" stroke-miterlimit="10" width="6.8" height="0.7"/>
<rect x="5.1" y="20.3" stroke="#FFFFFF" stroke-linecap="round" stroke-linejoin="round" stroke-miterlimit="10" width="10.1" height="0.8"/>
<rect x="5.1" y="33.8" fill="#FFFFFF" stroke="#FFFFFF" stroke-linecap="round" stroke-linejoin="round" stroke-miterlimit="10" width="3.4" height="0.7"/>
<rect x="11.9" y="6.8" stroke="#FFFFFF" stroke-linecap="round" stroke-linejoin="round" stroke-miterlimit="10" width="6.8" height="0.8"/>
<g>
	<g>
		<line fill="none" stroke="#FFFFFF" stroke-linecap="round" stroke-linejoin="round" x1="5.1" y1="27.8" x2="6.1" y2="27.8"/>
		
			<line fill="none" stroke="#FFFFFF" stroke-linecap="round" stroke-linejoin="round" stroke-dasharray="1.5833,1.5833" x1="7.7" y1="27.8" x2="10.1" y2="27.8"/>
		<line fill="none" stroke="#FFFFFF" stroke-linecap="round" stroke-linejoin="round" x1="10.9" y1="27.8" x2="11.9" y2="27.8"/>
	</g>
</g>
<rect x="22" y="13.5" stroke="#FFFFFF" stroke-linecap="round" stroke-linejoin="round" stroke-miterlimit="10" width="3.4" height="0.8"/>
<rect x="22" y="16.9" stroke="#FFFFFF" stroke-linecap="round" stroke-linejoin="round" stroke-miterlimit="10" width="3.4" height="0.7"/>
<rect x="22" y="20.3" stroke="#FFFFFF" stroke-linecap="round" stroke-linejoin="round" stroke-miterlimit="10" width="3.4" height="0.8"/>
<path fill="none" stroke="#FFFFFF" stroke-linecap="round" stroke-linejoin="round" stroke-miterlimit="10" d="M11.9,39.8V25.9
	c0-0.8,0.7-1.5,1.5-1.5h27.4c0.8,0,1.5,0.7,1.5,1.5v13.9c0,0.8-0.7,1.5-1.5,1.5H13.4C12.5,41.3,11.9,40.6,11.9,39.8z"/>
<rect x="11.9" y="27.8" fill="#FFFFFF" width="30.4" height="3.4"/>
<circle fill="none" stroke="#FFFFFF" stroke-linecap="round" stroke-linejoin="round" stroke-miterlimit="10" cx="35.5" cy="7.5" r="3.4"/>
<circle fill="none" stroke="#FFFFFF" stroke-linecap="round" stroke-linejoin="round" stroke-miterlimit="10" cx="38.9" cy="17.6" r="3.4"/>
</svg>
