<?xml version="1.0" encoding="utf-8"?>
<!-- Generator: Adobe Illustrator 18.0.0, SVG Export Plug-In . SVG Version: 6.00 Build 0)  -->
<!DOCTYPE svg PUBLIC "-//W3C//DTD SVG 1.1//EN" "http://www.w3.org/Graphics/SVG/1.1/DTD/svg11.dtd">
<svg version="1.1" id="Layer_1" xmlns="http://www.w3.org/2000/svg" xmlns:xlink="http://www.w3.org/1999/xlink" x="0px" y="0px"
	 viewBox="0 0 43 43" enable-background="new 0 0 43 43" xml:space="preserve">
<g>
	<path fill="#FFFFFF" d="M11.9,39.8c0,0.8,0.7,1.5,1.5,1.5h27.4c0.8,0,1.5-0.7,1.5-1.5v-8.6H11.9V39.8z"/>
	<path fill="#FFFFFF" d="M40.8,24.4H13.4c-0.8,0-1.5,0.7-1.5,1.5v1.9h30.4v-1.9C42.3,25,41.6,24.4,40.8,24.4z"/>
</g>
<circle fill="#FFFFFF" cx="35.5" cy="7.5" r="3.4"/>
<circle fill="#FFFFFF" cx="38.9" cy="17.6" r="3.4"/>
<path fill="#FFFFFF" d="M27.1,0.8l-1.7,1.7l-1.7-1.7h-3.4l-1.7,1.7l-1.7-1.7h-3.4l-1.7,1.7l-1.7-1.7H6.8L5.1,2.4L3.4,0.8H1.8v40.5
	h1.7l1.7-1.7l1.7,1.7h3.4c0,0,0-8.3,0-12.8H9.6v-0.8h0.6c0-1.2,0-2.1,0-2.1c0-1.7,1.3-3,3-3h15.6V0.8H27.1z M5.1,16.9h6.8v0.8H5.1
	V16.9z M5.1,27.8h1.5v0.8H5.1V27.8z M8.5,34.5H5.1v-0.8h3.4V34.5z M8.9,28.5H7.4v-0.8h1.5V28.5z M15.3,21H5.1v-0.8h10.1V21z
	 M15.3,14.3H5.1v-0.8h10.1V14.3z M18.6,7.5h-6.8V6.8h6.8V7.5z M25.4,21H22v-0.8h3.4V21z M25.4,17.6H22v-0.8h3.4V17.6z M25.4,14.3H22
	v-0.8h3.4V14.3z"/>
</svg>
