<?xml version="1.0" encoding="utf-8"?>
<!-- Generator: Adobe Illustrator 18.0.0, SVG Export Plug-In . SVG Version: 6.00 Build 0)  -->
<!DOCTYPE svg PUBLIC "-//W3C//DTD SVG 1.1//EN" "http://www.w3.org/Graphics/SVG/1.1/DTD/svg11.dtd">
<svg version="1.1" id="Layer_1" xmlns="http://www.w3.org/2000/svg" xmlns:xlink="http://www.w3.org/1999/xlink" x="0px" y="0px"
	 viewBox="0 0 43 43" enable-background="new 0 0 43 43" xml:space="preserve">
<circle fill="#FFFFFF" cx="18" cy="13.4" r="4.1"/>
<circle fill="#FFFFFF" cx="26" cy="5.3" r="4.1"/>
<path fill="#FFFFFF" d="M36.4,21.5H26.1H18H7.6c-1,0-1.8,0.8-1.8,1.8V40c0,1,0.8,1.8,1.8,1.8h28.8c1,0,1.8-0.8,1.8-1.8V23.3
	C38.2,22.3,37.4,21.5,36.4,21.5z M37.1,33.7h-5c-1.1,0-2-0.9-2-2c0-1.1,0.9-2,2-2h5V33.7z"/>
<circle fill="#FFFFFF" cx="32.3" cy="31.6" r="1.1"/>
</svg>
