<?xml version="1.0" encoding="utf-8"?>
<!-- Generator: Adobe Illustrator 18.0.0, SVG Export Plug-In . SVG Version: 6.00 Build 0)  -->
<!DOCTYPE svg PUBLIC "-//W3C//DTD SVG 1.1//EN" "http://www.w3.org/Graphics/SVG/1.1/DTD/svg11.dtd">
<svg version="1.1" id="Layer_1" xmlns="http://www.w3.org/2000/svg" xmlns:xlink="http://www.w3.org/1999/xlink" x="0px" y="0px"
	 viewBox="0 0 48 44" enable-background="new 0 0 48 44" xml:space="preserve">
<path fill-rule="evenodd" clip-rule="evenodd" fill="none" stroke="#F2F2F2" stroke-miterlimit="10" d="M35,9h11v9H35V9z"/>
<path fill-rule="evenodd" clip-rule="evenodd" fill="none" stroke="#F2F2F2" stroke-miterlimit="10" d="M24,9h12v9H24V9z"/>
<path fill-rule="evenodd" clip-rule="evenodd" fill="none" stroke="#F2F2F2" stroke-miterlimit="10" d="M13,9h12v9H13V9z"/>
<path fill-rule="evenodd" clip-rule="evenodd" fill="none" stroke="#F2F2F2" stroke-miterlimit="10" d="M2,9h12v9H2V9z"/>
<path fill-rule="evenodd" clip-rule="evenodd" fill="none" stroke="#F2F2F2" stroke-miterlimit="10" d="M35,17h11v9H35V17z"/>
<path fill-rule="evenodd" clip-rule="evenodd" fill="none" stroke="#F2F2F2" stroke-miterlimit="10" d="M24,17h12v9H24V17z"/>
<path fill-rule="evenodd" clip-rule="evenodd" fill="none" stroke="#F2F2F2" stroke-miterlimit="10" d="M13,17h12v9H13V17z"/>
<path fill-rule="evenodd" clip-rule="evenodd" fill="none" stroke="#F2F2F2" stroke-miterlimit="10" d="M2,17h12v9H2V17z"/>
<path fill-rule="evenodd" clip-rule="evenodd" fill="none" stroke="#F2F2F2" stroke-miterlimit="10" d="M35,25h11v9H35V25z"/>
<path fill-rule="evenodd" clip-rule="evenodd" fill="none" stroke="#F2F2F2" stroke-miterlimit="10" d="M24,25h12v9H24V25z"/>
<path fill-rule="evenodd" clip-rule="evenodd" fill="none" stroke="#F2F2F2" stroke-miterlimit="10" d="M13,25h12v9H13V25z"/>
<path fill-rule="evenodd" clip-rule="evenodd" fill="none" stroke="#F2F2F2" stroke-miterlimit="10" d="M2,25h12v9H2V25z"/>
<path fill-rule="evenodd" clip-rule="evenodd" fill="none" stroke="#F2F2F2" stroke-miterlimit="10" d="M35,33h11v9H35V33z"/>
<path fill-rule="evenodd" clip-rule="evenodd" fill="none" stroke="#F2F2F2" stroke-miterlimit="10" d="M24,33h12v9H24V33z"/>
<path fill-rule="evenodd" clip-rule="evenodd" fill="none" stroke="#F2F2F2" stroke-miterlimit="10" d="M13,33h12v9H13V33z"/>
<path fill-rule="evenodd" clip-rule="evenodd" fill="none" stroke="#F2F2F2" stroke-miterlimit="10" d="M2,33h12v9H2V33z"/>
<path fill-rule="evenodd" clip-rule="evenodd" fill="#F2F2F2" stroke="#C0C0C0" stroke-miterlimit="10" d="M35,2h11v8H35V2z"/>
<path fill-rule="evenodd" clip-rule="evenodd" fill="#F2F2F2" stroke="#C0C0C0" stroke-miterlimit="10" d="M24,2h12v8H24V2z"/>
<path fill-rule="evenodd" clip-rule="evenodd" fill="#F2F2F2" stroke="#C0C0C0" stroke-miterlimit="10" d="M13,2h12v8H13V2z"/>
<path fill-rule="evenodd" clip-rule="evenodd" fill="#F2F2F2" stroke="#C0C0C0" stroke-miterlimit="10" d="M2,2h12v8H2V2z"/>
</svg>
