<?xml version="1.0" encoding="utf-8"?>
<!-- Generator: Adobe Illustrator 18.0.0, SVG Export Plug-In . SVG Version: 6.00 Build 0)  -->
<!DOCTYPE svg PUBLIC "-//W3C//DTD SVG 1.1//EN" "http://www.w3.org/Graphics/SVG/1.1/DTD/svg11.dtd">
<svg version="1.1" id="Layer_1" xmlns="http://www.w3.org/2000/svg" xmlns:xlink="http://www.w3.org/1999/xlink" x="0px" y="0px"
	 viewBox="0 0 40 40" enable-background="new 0 0 40 40" xml:space="preserve">
<path fill="#24AE5F" d="M24.4,21.2h9.5c0.8,0,1.6,0.7,1.6,1.6v13.9c0,0.8-0.7,1.6-1.6,1.6H20c-0.8,0-1.6-0.7-1.6-1.6v-9.3L24.4,21.2
	z"/>
<path fill="#24AE5F" d="M18.5,16.7l5.1-14.4L4.1,21.2h7.6L6.3,35l18.4-18.3L18.5,16.7L18.5,16.7z"/>
<path fill="#FFFFFF" d="M22,26.5h10c0.5,0,0.8,0.4,0.8,0.8v1c0,0.5-0.4,0.8-0.8,0.8H22c-0.5,0-0.8-0.4-0.8-0.8v-1
	C21.2,26.9,21.5,26.5,22,26.5z"/>
<path fill="#FFFFFF" d="M22,31h10c0.5,0,0.8,0.4,0.8,0.8v1c0,0.5-0.4,0.9-0.8,0.9H22c-0.5,0-0.8-0.5-0.8-0.9v-1
	C21.2,31.4,21.5,31,22,31z"/>
</svg>
