<?xml version="1.0" encoding="utf-8"?>
<!-- Generator: Adobe Illustrator 18.0.0, SVG Export Plug-In . SVG Version: 6.00 Build 0)  -->
<!DOCTYPE svg PUBLIC "-//W3C//DTD SVG 1.1//EN" "http://www.w3.org/Graphics/SVG/1.1/DTD/svg11.dtd">
<svg version="1.1" id="Layer_1" xmlns="http://www.w3.org/2000/svg" xmlns:xlink="http://www.w3.org/1999/xlink" x="0px" y="0px"
	 viewBox="0 0 61.2 61.2" enable-background="new 0 0 61.2 61.2" xml:space="preserve">
<path fill-rule="evenodd" clip-rule="evenodd" fill="#C0C0C0" d="M37.4,32.4h14.5c1.3,0,2.4,1.1,2.4,2.4V56c0,1.3-1.1,2.4-2.4,2.4
	H30.6c-1.3,0-2.4-1.1-2.4-2.4V41.8L37.4,32.4z"/>
<path fill="#C0C0C0" d="M28.3,25.5l7.8-22L6.3,32.4h11.6L9.6,53.6l28.2-28H28.3z"/>
<path fill-rule="evenodd" clip-rule="evenodd" fill="#FFFFFF" d="M33.6,40.6h15.3c0.7,0,1.3,0.6,1.3,1.3v1.6c0,0.7-0.6,1.3-1.3,1.3
	H33.6c-0.7,0-1.3-0.6-1.3-1.3v-1.6C32.4,41.1,32.9,40.6,33.6,40.6z"/>
<path fill-rule="evenodd" clip-rule="evenodd" fill="#FFFFFF" d="M33.6,47.4h15.3c0.7,0,1.3,0.6,1.3,1.3v1.5c0,0.7-0.6,1.4-1.3,1.4
	H33.6c-0.7,0-1.3-0.7-1.3-1.4v-1.5C32.4,48,32.9,47.4,33.6,47.4z"/>
</svg>
