<?xml version="1.0" encoding="utf-8"?>
<!-- Generator: Adobe Illustrator 18.0.0, SVG Export Plug-In . SVG Version: 6.00 Build 0)  -->
<!DOCTYPE svg PUBLIC "-//W3C//DTD SVG 1.1//EN" "http://www.w3.org/Graphics/SVG/1.1/DTD/svg11.dtd">
<svg version="1.1" id="Layer_1" xmlns="http://www.w3.org/2000/svg" xmlns:xlink="http://www.w3.org/1999/xlink" x="0px" y="0px"
	 viewBox="0 0 50 40" enable-background="new 0 0 50 40" xml:space="preserve">
<path fill-rule="evenodd" clip-rule="evenodd" fill="#EBF6EF" d="M43,8h4v30h-4V8z"/>
<path fill-rule="evenodd" clip-rule="evenodd" fill="#EBF6EF" d="M35,19h4v19h-4V19z"/>
<path fill-rule="evenodd" clip-rule="evenodd" fill="#EBF6EF" d="M27,29h4v9h-4V29z"/>
<path fill-rule="evenodd" clip-rule="evenodd" fill="#EBF6EF" d="M19,26h4v12h-4V26z"/>
<path fill-rule="evenodd" clip-rule="evenodd" fill="#EBF6EF" d="M11,23h4v15h-4V23z"/>
<path fill-rule="evenodd" clip-rule="evenodd" fill="#EBF6EF" d="M3,34h4v4H3V34z"/>
<path fill-rule="evenodd" clip-rule="evenodd" fill="#EBF6EF" d="M0,38h50v2H0V38z"/>
<path fill-rule="evenodd" clip-rule="evenodd" fill="#4EB86D" d="M45,0c1.7,0,3,1.3,3,3c0,1.7-1.3,3-3,3c-1.7,0-3-1.3-3-3
	C42,1.3,43.3,0,45,0z"/>
<path fill-rule="evenodd" clip-rule="evenodd" fill="#4EB86D" d="M29,21c1.7,0,3,1.3,3,3c0,1.7-1.3,3-3,3c-1.7,0-3-1.3-3-3
	C26,22.3,27.3,21,29,21z"/>
<path fill-rule="evenodd" clip-rule="evenodd" fill="#4EB86D" d="M5,27c1.7,0,3,1.3,3,3c0,1.7-1.3,3-3,3c-1.7,0-3-1.3-3-3
	C2,28.3,3.3,27,5,27z"/>
<path fill-rule="evenodd" clip-rule="evenodd" fill="#4EB86D" d="M13,15c1.7,0,3,1.3,3,3c0,1.7-1.3,3-3,3c-1.7,0-3-1.3-3-3
	C10,16.3,11.3,15,13,15z"/>
<path fill-rule="evenodd" clip-rule="evenodd" fill="none" stroke="#4EB86D" stroke-miterlimit="10" d="M4,30l8-13l17,7L45,1"/>
</svg>
