<svg version="1.1" xmlns="http://www.w3.org/2000/svg" xmlns:xlink="http://www.w3.org/1999/xlink" x="0px" y="0px"
	 viewBox="0 0 350 350" enable-background="new 0 0 350 350" xml:space="preserve">

    <style>
    .path { stroke-width: 40; fill: none; stroke-miterlimit: 10; }
    .orange { stroke: #75838b; }
    .blue { stroke: #ff7940; }
    .non { display: none }
    .moving { fill: none; stroke-width: 42; stroke-miterlimit: 10; stroke-linecap: round; stroke-linejoin: round; }
    </style>

    <defs>
        <mask id="logomask" maskUnits="objectBoundingBox">
            <path fill="#ffffff" d="M173.2,346.2c44.7,0,87.1-17.1,119.2-48.2c33.5-32.4,52.4-77.4,53.1-126.5l0-0.3
			C345.5,93,282.6,9.5,177.3,5.4l-0.5,0l-0.5,0c-23.5,0.3-42.6,4.9-55.9,9.4c-26.1,8-47.3,20.6-59.2,30.6
			C28,73.3,7.3,112.3,2.8,155.3c-4,38.2,5.6,76.5,27,109.8c16.6,27.6,40.6,49.2,70.3,63.4c27.4,13.1,55.8,17.7,72.8,17.7
			 M43.2,197.4c-2.4-12.4-3.1-25-1.7-37.6c3.4-33,19.2-63.1,44.6-84.4c0.5-0.4,1.7-1.4,3.8-2.9c0.1,41.2,0.1,59.2,0.2,72.5
			C80.1,156,59.4,179.2,43.2,197.4z M264.6,269.2C240,293,207.6,306,173.3,306h0c-2.7,0-27.6-0.3-55.8-13.7
			c-25.2-12-44.3-30.2-57-54.3c8.5-9.5,21.2-23.8,33.2-37.2c3.7,12,10.4,24.8,21.1,35.7c13.1,13.2,29.9,21.3,49.1,23.7v-40.6
			c-8.2-1.9-15.1-5.6-20.7-11.3C134,198.9,130,185.8,130,177v-1.2c0-6.8,0-12.1,0-17.1c0,0,0,0,0,0V104c0,0,0,0,0,0l0-3.8l-0.1,0.1
			c0-9.9-0.1-21.8-0.1-36.4l0-10.1c9.6-3.6,25.6-8.1,46.5-8.4c48.6,2,78.9,24.3,95.8,42.7c21.2,23.2,33.4,53.4,33.5,82.9
			C304.9,209.4,290.4,244.2,264.6,269.2z"/>
		    <path fill="#ffffff" d="M232.6,113.5c-15.8-14.3-36.9-22.4-58-22.4l-0.4,0H174c-8.7,0-16.6,1.4-24,3.7v44c6.7-4.4,14.8-7.7,24-7.7
			l0.3,0l0.4,0c31.2,0,45.3,26.1,45.3,44.6c0,24-19.3,40.4-36,44.4v40.5c37.3-4,76-37.8,76-84.9C260,151.4,250.3,129.4,232.6,113.5z
			"/>
        </mask>
    </defs>

    <g style="mask: url(#logomask)">
        <rect x="0" y="0" width="100%" height="100%" style="fill: #272f3e;" />
        <path style="mask: url(#logomask)" class="moving orange" d="M109.8,41c0,0,25.5-15,66.8-15.6
		c95.4,3.7,149,78.9,149,145.8c-1.3,93.1-73.2,155-152.2,155c-23.1,0-103.1-11.5-136.5-91.7c9-10.3,73.8-82.8,73.8-82.8
		s23-41,63.6-40.8c31.9-0.2,65.7,24.4,65.7,64.6c0,38.2-34.1,65.3-63.4,65.3c-48.1,0-66.9-39.7-66.6-64.2
		C110,142.2,110,146.2,109.8,41z">

            <animate attributeName="stroke-dashoffset" from="0" to="1350" begin="0" dur="2s" repeatCount="indefinite" additive="sum" />
            <animate attributeName="stroke-dasharray" from="220 1130" to="220 1130" begin="0" dur="2s" repeatCount="indefinite" additive="sum" />

		</path>
    </g>
</svg>
